<?xml version="1.0" encoding="utf-8"?>
<!-- Generator: Adobe Illustrator 27.5.0, SVG Export Plug-In . SVG Version: 6.00 Build 0)  -->
<svg version="1.1" xmlns="http://www.w3.org/2000/svg" xmlns:xlink="http://www.w3.org/1999/xlink" x="0px" y="0px"
	 viewBox="0 0 500 500" style="enable-background:new 0 0 500 500;" xml:space="preserve">
<g id="Background_Complete">
	<g>
		<path style="fill:#F5F5F5;" d="M275.644,352.803H66.716c-3.975,0-7.198-3.223-7.198-7.198V54.222c0-3.975,3.223-7.198,7.198-7.198
			h208.928c3.975,0,7.198,3.223,7.198,7.198v291.383C282.842,349.58,279.62,352.803,275.644,352.803z"/>
	</g>
	<g>
		<g>
			<g>
				<g>
					<path style="fill:#EBEBEB;" d="M445.235,65.237l0.419,2.123l-4.206,22.755l0,0c-3.017,2.213-6.813,3.082-10.492,2.402
						l-23.799-4.399c0,0-3.783-0.845-2.729-5.756c0,0,0.187-2.591,2.407-2.764c0,0-4.613-1.874-4.103-5.426
						c0.511-3.553,3.128-3.506,3.128-3.506s-4.321-1.09-3.873-5.092c0.448-4.002,2.783-4.008,2.783-4.008s-5.026-1.221-3.768-5.657
						c1.258-4.436,5.578-3.345,5.578-3.345l16.928,3.125l14.839,2.743C441.821,59.072,444.551,61.77,445.235,65.237z"/>
				</g>
				<g>
					<path style="fill:#EBEBEB;" d="M441.044,59.416c0,0-5.213-4.716-7.047-9.846c-1.331-3.724-1.239-7.921-1.239-7.921
						c0.037-0.202,0.343-1.994,0.593-3.461c0.205-1.202-0.577-2.339-1.768-2.601c-2.505-0.551-6.91,0.887-8.237,5.456
						c-1.979,6.818-0.287,11.466-0.23,13.541c0.057,2.076,0.057,2.076,0.057,2.076L441.044,59.416z"/>
				</g>
				<g>
					
						<rect x="440.757" y="60.991" transform="matrix(-0.9833 -0.1818 0.1818 -0.9833 876.7283 236.6749)" style="fill:#EBEBEB;" width="16.905" height="34.345"/>
				</g>
				<g>
					<g>
						<path style="fill:#E0E0E0;" d="M437.776,93.514c-0.036-0.007,1.332-7.573,3.056-16.898c1.724-9.328,3.151-16.882,3.187-16.875
							c0.036,0.007-1.332,7.571-3.056,16.9C439.239,85.965,437.812,93.521,437.776,93.514z"/>
					</g>
				</g>
				<g>
					<g>
						<path style="fill:#E0E0E0;" d="M454.399,96.587c-0.036-0.007,1.332-7.573,3.056-16.898c1.724-9.328,3.151-16.882,3.187-16.875
							c0.036,0.007-1.332,7.571-3.056,16.9C455.862,89.038,454.435,96.594,454.399,96.587z"/>
					</g>
				</g>
				<g>
					<path style="fill:#FFFFFF;" d="M448.458,68.557c-0.318,1.718,0.818,3.368,2.535,3.685c1.718,0.318,3.368-0.818,3.686-2.536
						c0.318-1.718-0.818-3.368-2.536-3.685C450.426,65.704,448.776,66.839,448.458,68.557z"/>
				</g>
				<g>
					<g>
						<path style="fill:#E0E0E0;" d="M419.613,54.967c0.007-0.036,1.824,0.27,4.06,0.683c2.236,0.413,4.043,0.777,4.036,0.813
							c-0.007,0.036-1.824-0.27-4.06-0.683C421.413,55.368,419.606,55.003,419.613,54.967z"/>
					</g>
				</g>
				<g>
					<g>
						<path style="fill:#E0E0E0;" d="M405.493,70.761c0.007-0.036,1.171,0.149,2.599,0.413c1.429,0.264,2.582,0.507,2.575,0.543
							c-0.007,0.036-1.17-0.149-2.599-0.413C406.64,71.041,405.487,70.798,405.493,70.761z"/>
					</g>
				</g>
				<g>
					<g>
						<path style="fill:#E0E0E0;" d="M404.458,61.421c0.007-0.036,1.656,0.239,3.684,0.614c2.029,0.375,3.667,0.708,3.66,0.744
							c-0.007,0.036-1.656-0.239-3.684-0.614C406.09,61.79,404.451,61.457,404.458,61.421z"/>
					</g>
				</g>
				<g>
					<g>
						<path style="fill:#E0E0E0;" d="M405.787,79.447c0.007-0.036,1.656,0.239,3.684,0.614c2.029,0.375,3.667,0.708,3.66,0.744
							c-0.007,0.036-1.656-0.239-3.684-0.614C407.419,79.816,405.78,79.483,405.787,79.447z"/>
					</g>
				</g>
				<g>
					<g>
						<path style="fill:#FFFFFF;" d="M447.762,61.423c0.007-0.036,2.335,0.364,5.2,0.894c2.866,0.53,5.183,0.988,5.176,1.024
							c-0.007,0.036-2.334-0.364-5.2-0.894C450.073,61.917,447.755,61.459,447.762,61.423z"/>
					</g>
				</g>
				<g>
					<g>
						<path style="fill:#FFFFFF;" d="M403.577,67.277c-0.009,0.003-0.035-0.065-0.074-0.191c-0.042-0.125-0.082-0.313-0.111-0.548
							c-0.031-0.235-0.035-0.519-0.009-0.832c0.033-0.312,0.1-0.653,0.217-0.996c0.121-0.342,0.28-0.651,0.448-0.916
							c0.174-0.262,0.353-0.482,0.523-0.647c0.168-0.166,0.316-0.289,0.427-0.361c0.109-0.074,0.172-0.112,0.177-0.104
							c0.015,0.02-0.223,0.188-0.536,0.53c-0.158,0.169-0.324,0.39-0.488,0.647c-0.157,0.261-0.308,0.563-0.426,0.895
							c-0.113,0.333-0.182,0.663-0.221,0.965c-0.032,0.303-0.038,0.579-0.019,0.81C403.518,66.991,403.601,67.271,403.577,67.277z"
							/>
					</g>
				</g>
				<g>
					<g>
						<path style="fill:#FFFFFF;" d="M402.697,58.267c-0.009,0.009-0.166-0.132-0.33-0.428c-0.165-0.293-0.311-0.751-0.302-1.27
							c0.011-0.519,0.174-0.971,0.349-1.258c0.175-0.289,0.338-0.424,0.346-0.415c0.018,0.015-0.117,0.171-0.264,0.46
							c-0.148,0.287-0.288,0.721-0.299,1.215c-0.008,0.494,0.116,0.933,0.253,1.225C402.587,58.092,402.716,58.253,402.697,58.267z"
							/>
					</g>
				</g>
				<g>
					<g>
						<path style="fill:#FFFFFF;" d="M404.817,76.968c-0.006,0.011-0.221-0.109-0.463-0.416c-0.24-0.3-0.486-0.815-0.478-1.419
							c0.009-0.604,0.271-1.112,0.519-1.405c0.25-0.3,0.469-0.414,0.474-0.402c0.015,0.018-0.18,0.157-0.4,0.46
							c-0.22,0.297-0.452,0.782-0.461,1.35c-0.007,0.568,0.21,1.059,0.422,1.362C404.642,76.806,404.832,76.95,404.817,76.968z"/>
					</g>
				</g>
				<g>
					<g>
						<path style="fill:#FFFFFF;" d="M406.717,85.613c-0.01,0.009-0.161-0.146-0.32-0.454c-0.16-0.306-0.305-0.775-0.308-1.306
							c-0.001-0.532,0.142-1.002,0.299-1.308c0.157-0.309,0.307-0.465,0.317-0.456c0.019,0.013-0.102,0.187-0.232,0.495
							c-0.131,0.307-0.252,0.759-0.252,1.269c0.003,0.51,0.127,0.961,0.26,1.267C406.614,85.427,406.736,85.6,406.717,85.613z"/>
					</g>
				</g>
				<g>
					<g>
						<path style="fill:#FFFFFF;" d="M423.531,48.941c-0.009,0.002-0.05-0.131-0.116-0.376c-0.035-0.122-0.073-0.272-0.106-0.449
							c-0.034-0.177-0.082-0.377-0.109-0.602c-0.073-0.448-0.119-0.987-0.133-1.587c-0.005-0.6,0.029-1.261,0.125-1.947
							c0.103-0.686,0.259-1.329,0.435-1.902c0.184-0.571,0.383-1.075,0.58-1.484c0.091-0.208,0.193-0.386,0.276-0.546
							c0.082-0.16,0.162-0.293,0.23-0.4c0.133-0.215,0.211-0.332,0.218-0.327c0.008,0.005-0.055,0.13-0.173,0.353
							c-0.061,0.11-0.134,0.246-0.209,0.409c-0.077,0.162-0.172,0.342-0.257,0.55c-0.185,0.41-0.373,0.913-0.548,1.481
							c-0.168,0.57-0.319,1.207-0.421,1.886c-0.096,0.679-0.133,1.333-0.135,1.927c0.007,0.594,0.043,1.129,0.104,1.575
							c0.021,0.224,0.062,0.424,0.089,0.601c0.026,0.177,0.057,0.328,0.084,0.451C423.516,48.801,423.54,48.939,423.531,48.941z"/>
					</g>
				</g>
			</g>
		</g>
	</g>
	<g>
		<g>
			<g>
				<g>
					<path style="fill:#EBEBEB;" d="M419.505,273.29l1.127,1.29l6.119,17.265l0,0c-1.193,2.711-3.452,4.809-6.243,5.798l-18.058,6.4
						c0,0-2.928,0.917-4.148-2.867c0,0-0.897-1.851,0.557-2.848c0,0-3.905,0.541-4.96-2.097c-1.055-2.638,0.757-3.642,0.757-3.642
						s-3.394,0.962-4.67-1.959c-1.276-2.921,0.322-3.849,0.322-3.849s-3.929,1.152-4.822-2.387
						c-0.893-3.539,2.501-4.501,2.501-4.501l12.842-4.555l11.259-3.991C414.725,270.415,417.664,271.184,419.505,273.29z"/>
				</g>
				<g>
					<path style="fill:#EBEBEB;" d="M414.328,270.958c0,0-5.44-1.171-8.727-3.962c-2.386-2.026-3.984-4.94-3.984-4.94
						c-0.054-0.153-0.554-1.503-0.963-2.607c-0.335-0.905-1.321-1.375-2.241-1.084c-1.935,0.613-4.387,3.342-3.488,7
						c1.341,5.457,4.34,7.975,5.2,9.375c0.86,1.401,0.86,1.401,0.86,1.401L414.328,270.958z"/>
				</g>
				<g>
					
						<rect x="420.653" y="266.988" transform="matrix(-0.9425 0.3341 -0.3341 -0.9425 923.8702 402.2783)" style="fill:#EBEBEB;" width="13.381" height="27.187"/>
				</g>
				<g>
					<g>
						<path style="fill:#E0E0E0;" d="M425.579,295.629c-0.027,0.01-2.083-5.719-4.591-12.795
							c-2.509-7.078-4.519-12.821-4.492-12.831c0.027-0.01,2.082,5.718,4.591,12.796
							C423.595,289.875,425.606,295.62,425.579,295.629z"/>
					</g>
				</g>
				<g>
					<g>
						<path style="fill:#E0E0E0;" d="M438.191,291.159c-0.027,0.01-2.083-5.719-4.59-12.795c-2.509-7.078-4.519-12.821-4.492-12.831
							c0.027-0.01,2.082,5.718,4.591,12.796C436.208,285.404,438.219,291.149,438.191,291.159z"/>
					</g>
				</g>
				<g>
					<path style="fill:#FFFFFF;" d="M423.028,274.291c0.462,1.303,1.893,1.986,3.197,1.524c1.303-0.462,1.986-1.893,1.524-3.197
						c-0.462-1.303-1.893-1.986-3.197-1.524C423.248,271.557,422.566,272.988,423.028,274.291z"/>
				</g>
				<g>
					<g>
						<path style="fill:#E0E0E0;" d="M397.874,276.387c-0.01-0.027,1.358-0.537,3.054-1.138c1.697-0.601,3.079-1.067,3.089-1.039
							c0.01,0.027-1.357,0.537-3.054,1.138C399.267,275.949,397.884,276.415,397.874,276.387z"/>
					</g>
				</g>
				<g>
					<g>
						<path style="fill:#E0E0E0;" d="M394.443,292.803c-0.01-0.027,0.861-0.361,1.945-0.745c1.084-0.384,1.971-0.674,1.981-0.646
							c0.01,0.027-0.861,0.361-1.946,0.745C395.339,292.54,394.453,292.83,394.443,292.803z"/>
					</g>
				</g>
				<g>
					<g>
						<path style="fill:#E0E0E0;" d="M390.037,286.808c-0.01-0.027,1.23-0.492,2.769-1.037c1.539-0.546,2.794-0.965,2.804-0.938
							c0.01,0.027-1.23,0.492-2.769,1.037C391.302,286.416,390.047,286.836,390.037,286.808z"/>
					</g>
				</g>
				<g>
					<g>
						<path style="fill:#E0E0E0;" d="M398.081,298.641c-0.01-0.027,1.23-0.492,2.769-1.037c1.539-0.546,2.794-0.966,2.804-0.938
							c0.01,0.027-1.23,0.492-2.769,1.037C399.346,298.249,398.09,298.669,398.081,298.641z"/>
					</g>
				</g>
				<g>
					<g>
						<path style="fill:#FFFFFF;" d="M419.728,269.676c-0.01-0.027,1.745-0.674,3.918-1.444c2.174-0.771,3.944-1.373,3.954-1.346
							c0.01,0.027-1.745,0.674-3.919,1.445C421.508,269.101,419.738,269.703,419.728,269.676z"/>
					</g>
				</g>
				<g>
					<g>
						<path style="fill:#FFFFFF;" d="M391.75,291.172c-0.005,0.005-0.049-0.031-0.126-0.102c-0.079-0.069-0.18-0.182-0.293-0.332
							c-0.114-0.149-0.229-0.342-0.335-0.567c-0.101-0.227-0.19-0.487-0.245-0.769c-0.052-0.283-0.066-0.557-0.055-0.805
							c0.015-0.248,0.051-0.47,0.103-0.65c0.05-0.181,0.102-0.323,0.15-0.417c0.045-0.094,0.074-0.144,0.08-0.141
							c0.018,0.008-0.079,0.217-0.158,0.575c-0.041,0.178-0.068,0.396-0.078,0.637c-0.004,0.242,0.012,0.507,0.062,0.782
							c0.054,0.274,0.138,0.526,0.231,0.749c0.098,0.221,0.203,0.412,0.308,0.563C391.597,290.999,391.764,291.158,391.75,291.172z"
							/>
					</g>
				</g>
				<g>
					<g>
						<path style="fill:#FFFFFF;" d="M387.583,285.343c-0.003,0.01-0.166-0.025-0.396-0.163c-0.229-0.135-0.51-0.392-0.71-0.751
							c-0.198-0.36-0.265-0.735-0.258-1c0.005-0.268,0.064-0.424,0.073-0.422c0.018,0.003-0.012,0.163,0.001,0.42
							c0.012,0.256,0.088,0.608,0.276,0.952c0.19,0.342,0.448,0.594,0.659,0.74C387.438,285.266,387.589,285.325,387.583,285.343z"
							/>
					</g>
				</g>
				<g>
					<g>
						<path style="fill:#FFFFFF;" d="M396.435,297.326c0,0.01-0.195,0.013-0.482-0.102c-0.283-0.111-0.656-0.367-0.89-0.784
							c-0.233-0.418-0.254-0.869-0.2-1.169c0.053-0.305,0.158-0.469,0.166-0.464c0.017,0.007-0.061,0.179-0.093,0.474
							c-0.034,0.291,0,0.715,0.218,1.108c0.22,0.392,0.563,0.643,0.828,0.767C396.251,297.283,396.438,297.307,396.435,297.326z"/>
					</g>
				</g>
				<g>
					<g>
						<path style="fill:#FFFFFF;" d="M401.158,302.501c-0.003,0.01-0.168-0.036-0.399-0.185c-0.23-0.146-0.516-0.41-0.728-0.774
							c-0.211-0.364-0.299-0.743-0.313-1.015c-0.015-0.274,0.027-0.44,0.037-0.438c0.018,0.002,0.004,0.168,0.037,0.431
							c0.032,0.262,0.127,0.62,0.329,0.97c0.204,0.348,0.467,0.609,0.68,0.766C401.014,302.414,401.166,302.484,401.158,302.501z"/>
					</g>
				</g>
				<g>
					<g>
						<path style="fill:#FFFFFF;" d="M398.177,270.705c-0.005,0.005-0.086-0.07-0.228-0.212c-0.072-0.07-0.158-0.158-0.251-0.266
							c-0.093-0.107-0.205-0.226-0.313-0.37c-0.227-0.278-0.472-0.63-0.719-1.036c-0.241-0.409-0.479-0.876-0.684-1.384
							c-0.201-0.511-0.348-1.014-0.454-1.477c-0.1-0.465-0.163-0.888-0.189-1.246c-0.02-0.178-0.021-0.341-0.027-0.483
							c-0.007-0.142-0.005-0.265-0.001-0.365c0.006-0.2,0.013-0.311,0.02-0.311c0.007,0,0.014,0.111,0.021,0.31
							c0.002,0.1,0.006,0.222,0.019,0.363c0.011,0.141,0.017,0.302,0.042,0.479c0.036,0.354,0.106,0.773,0.21,1.232
							c0.111,0.457,0.259,0.954,0.458,1.459c0.203,0.504,0.436,0.966,0.67,1.374c0.24,0.405,0.477,0.757,0.694,1.039
							c0.103,0.145,0.21,0.266,0.299,0.377c0.088,0.111,0.169,0.203,0.236,0.276C398.111,270.615,398.182,270.7,398.177,270.705z"/>
					</g>
				</g>
			</g>
		</g>
	</g>
	<g>
		<g>
			<path style="fill:#E0E0E0;" d="M263.372,471.55h-48.699c-7.35,0-13.308-5.958-13.308-13.308v-48.699
				c0-7.35,5.958-13.308,13.308-13.308h48.699c7.35,0,13.308,5.958,13.308,13.308v48.699
				C276.68,465.592,270.722,471.55,263.372,471.55z"/>
		</g>
		<g>
			<path style="fill:#EBEBEB;" d="M249.849,471.55H201.15c-7.35,0-13.308-5.958-13.308-13.308v-48.699
				c0-7.35,5.958-13.308,13.308-13.308h48.699c7.35,0,13.308,5.958,13.308,13.308v48.699
				C263.157,465.592,257.198,471.55,249.849,471.55z"/>
		</g>
		<g>
			<g>
				<g>
					<g>
						<g>
							<polygon style="fill:#FFFFFF;" points="199.495,434.976 207.081,427.39 221.713,440.396 246.145,415.869 253.19,423.455 
								220.629,455.027 							"/>
						</g>
					</g>
				</g>
			</g>
		</g>
	</g>
	<g>
		<g>
			<path style="fill:#E0E0E0;" d="M89.475,470.83H57.661c-7.35,0-13.308-5.958-13.308-13.308v-31.813
				c0-7.35,5.958-13.308,13.308-13.308h31.813c7.35,0,13.308,5.958,13.308,13.308v31.813
				C102.782,464.871,96.824,470.83,89.475,470.83z"/>
		</g>
		<g>
			<path style="fill:#EBEBEB;" d="M78.983,470.83H47.17c-7.35,0-13.308-5.958-13.308-13.308v-31.813
				c0-7.35,5.958-13.308,13.308-13.308h31.813c7.35,0,13.308,5.958,13.308,13.308v31.813
				C92.291,464.871,86.333,470.83,78.983,470.83z"/>
		</g>
		<g>
			<g>
				<g>
					<g>
						<g>
							<polygon style="fill:#FFFFFF;" points="42.903,442.456 48.788,436.57 60.139,446.66 79.094,427.632 84.559,433.518 
								59.298,458.011 							"/>
						</g>
					</g>
				</g>
			</g>
		</g>
	</g>
</g>
<g id="Background_Simple" style="display:none;">
	<g style="display:inline;">
		<path style="fill:#F5F5F5;" d="M412.344,106.842l-2.106-3.471c-17.754-29.257-49.855-46.894-83.699-44.754
			c-4.35,0.275-8.682,0.864-12.956,1.779c-30.771,6.587-57.546,29.856-68.644,59.658c-6.527,17.527-8.35,37.707-20.736,51.618
			c-16.12,18.106-43.487,18.674-67.548,17.924c-24.061-0.75-51.447-0.11-67.488,18.067c-10.046,11.384-13.239,27.573-12.429,42.818
			c2.145,40.363,30.27,76.453,66.039,94.392c35.769,17.939,77.882,19.546,117.029,11.654
			c54.84-11.055,106.992-41.414,138.339-88.304C429.492,221.334,437.426,157.451,412.344,106.842z"/>
	</g>
	<g style="display:inline;">
		<circle style="fill:#F5F5F5;" cx="225.755" cy="408.735" r="24.429"/>
	</g>
</g>
<g id="Flor">
	<g>
		<g>
			<path style="fill:#263238;" d="M446.908,469.106c0,0.144-89.957,0.26-200.899,0.26c-110.98,0-200.918-0.117-200.918-0.26
				c0-0.144,89.938-0.26,200.918-0.26C356.951,468.846,446.908,468.963,446.908,469.106z"/>
		</g>
	</g>
</g>
<g id="Plant">
	<g>
		<g>
			<g>
				<path style="fill:#263238;" d="M406.642,440.464c0,0-4.168-28.657-3.821-45.329c0.347-16.673-0.021-35.43-0.021-35.43h1.921
					c0,0-1.301,33.094,0.115,53.054c1.415,19.944,5.142,27.706,5.142,27.706H406.642"/>
			</g>
			<g>
				<path style="fill:#455A64;" d="M419.058,327.461c-0.386-0.979-0.861-1.999-1.75-2.562c-1.219-0.772-2.816-0.451-4.176,0.03
					c-5.803,2.052-10.948,12.873-13.294,18.564l7.705,25.961C421.45,356.552,423.858,339.627,419.058,327.461z"/>
			</g>
			<g>
				<g>
					<path style="fill:#263238;" d="M416.858,325.95c0.01,0.004-0.029,0.121-0.112,0.339c-0.099,0.249-0.224,0.562-0.377,0.946
						c-0.338,0.817-0.812,2.005-1.378,3.48c-1.135,2.948-2.58,7.069-3.872,11.713c-1.287,4.646-2.173,8.923-2.72,12.035
						c-0.275,1.556-0.481,2.818-0.613,3.692c-0.067,0.408-0.121,0.741-0.164,1.005c-0.041,0.229-0.068,0.349-0.079,0.348
						c-0.011-0.001-0.005-0.124,0.015-0.356c0.028-0.266,0.063-0.602,0.105-1.014c0.094-0.88,0.267-2.149,0.514-3.712
						c0.491-3.126,1.345-7.423,2.635-12.082c1.296-4.656,2.779-8.778,3.969-11.71c0.594-1.467,1.1-2.644,1.474-3.446
						c0.176-0.375,0.319-0.68,0.432-0.923C416.79,326.053,416.848,325.945,416.858,325.95z"/>
				</g>
			</g>
			<g>
				<path style="fill:#455A64;" d="M404.119,375.678c-7.222-3.99-11.478-11.498-11.875-19.739
					c-0.278-5.761,1.492-11.414,3.498-16.822c0.174-0.469,0.38-0.975,0.816-1.221c0.606-0.343,1.364-0.038,1.969,0.307
					c5.248,2.988,8.427,8.685,10.119,14.482c1.126,3.857,1.709,7.925,1.188,11.909C409.313,368.579,407.035,372.914,404.119,375.678
					"/>
			</g>
			<g>
				<g>
					<path style="fill:#263238;" d="M404.119,375.678c-0.011,0-0.02-0.12-0.028-0.348c-0.005-0.263-0.011-0.592-0.019-0.996
						c-0.002-0.865-0.037-2.116-0.108-3.66c-0.139-3.088-0.544-7.344-1.34-11.993c-0.801-4.65-1.773-8.814-2.49-11.823
						c-0.353-1.473-0.643-2.679-0.855-3.564c-0.09-0.394-0.164-0.715-0.222-0.972c-0.047-0.223-0.067-0.341-0.057-0.344
						c0.011-0.003,0.051,0.11,0.119,0.328c0.074,0.252,0.166,0.569,0.28,0.957c0.237,0.833,0.565,2.042,0.953,3.541
						c0.773,2.998,1.781,7.161,2.585,11.824c0.799,4.662,1.17,8.939,1.252,12.037c0.042,1.549,0.043,2.804,0.007,3.669
						c-0.016,0.404-0.03,0.734-0.04,0.997C404.142,375.559,404.13,375.679,404.119,375.678z"/>
				</g>
			</g>
			<g style="opacity:0.3;">
				<g>
					<path d="M404.119,375.678c-7.222-3.99-11.478-11.498-11.875-19.739c-0.278-5.761,1.492-11.414,3.498-16.822
						c0.174-0.469,0.38-0.975,0.816-1.221c0.606-0.343,1.364-0.038,1.969,0.307c5.248,2.988,8.427,8.685,10.119,14.482
						c1.126,3.857,1.709,7.925,1.188,11.909C409.313,368.579,407.035,372.914,404.119,375.678"/>
				</g>
			</g>
			<g>
				<path style="fill:#455A64;" d="M412.267,419.525c7.108,1.561,12.96,6.575,19.817,9.013c4.537,1.613,9.667,2.183,13.29,5.356
					c-0.869-2.194-2.93-3.656-4.932-4.906c-5.639-3.522-11.677-6.405-17.962-8.575c-3.226-1.114-6.726-2.045-10.013-1.127"/>
			</g>
			<g>
				<path style="fill:#455A64;" d="M401.99,425.857c-8.901-0.144-18.274-7.722-27.134-8.174
					C384.128,414.689,397.404,417.134,401.99,425.857"/>
			</g>
			<g>
				<path style="fill:#455A64;" d="M405.468,404.504c4.52-1.629,9.483-1.707,14.231-0.968c4.748,0.738,9.333,2.26,13.892,3.776
					c-0.457-3.088-2.958-5.411-5.308-7.466c-1.768-1.547-3.55-3.103-5.578-4.288c-2.029-1.184-4.343-1.987-6.69-1.887
					c-2.832,0.12-5.527,1.581-7.384,3.722C406.774,399.532,405.775,401.687,405.468,404.504"/>
			</g>
			<g>
				<path style="fill:#455A64;" d="M387.2,394.676c-5.603-4.784-14.09-4.316-21.456-4.15c11.323,5.414,23.524,12.836,33.276,20.736
					C399.318,406.055,394.278,400.719,387.2,394.676z"/>
			</g>
			<g style="opacity:0.3;">
				<g>
					<path d="M387.2,394.676c-5.603-4.784-14.09-4.316-21.456-4.15c11.323,5.414,23.524,12.836,33.276,20.736
						C399.318,406.055,394.278,400.719,387.2,394.676z"/>
				</g>
			</g>
			<g>
				<path style="fill:#455A64;" d="M407.988,388.072c2.817-1.878,5.668-3.669,8.617-5.009c2.949-1.34,5.701-3.475,8.549-5.017
					c3.694-2,6.893-4.78,10.284-7.259c3.39-2.479,7.114-4.718,11.263-5.374c-3.383-0.698-6.918-0.317-10.25,0.593
					c-3.332,0.91-6.498,2.334-9.647,3.753c-4.371,1.969-8.818,3.987-12.391,7.183S407.611,383.293,407.988,388.072"/>
			</g>
			<g>
				<g>
					<path style="fill:#263238;" d="M431.921,425.857c-0.005,0.009-0.102-0.033-0.282-0.122c-0.21-0.109-0.466-0.242-0.777-0.402
						c-0.67-0.357-1.633-0.885-2.845-1.495c-0.6-0.317-1.264-0.647-1.986-0.986c-0.714-0.355-1.49-0.704-2.311-1.06
						c-1.644-0.702-3.479-1.435-5.481-1.91c-1.996-0.49-3.984-0.597-5.71-0.143c-0.87,0.21-1.69,0.418-2.419,0.722
						c-0.732,0.297-1.385,0.643-1.953,1.003c-1.141,0.718-1.937,1.479-2.454,2.027c-0.516,0.552-0.767,0.89-0.789,0.873
						c-0.009-0.007,0.046-0.096,0.16-0.262c0.111-0.167,0.291-0.402,0.538-0.694c0.494-0.579,1.278-1.378,2.424-2.134
						c0.571-0.378,1.231-0.744,1.975-1.057c0.742-0.322,1.58-0.545,2.452-0.764c1.763-0.482,3.83-0.379,5.85,0.119
						c2.033,0.483,3.878,1.23,5.525,1.951c0.823,0.365,1.598,0.725,2.31,1.091c0.719,0.35,1.38,0.693,1.975,1.023
						c1.202,0.636,2.149,1.195,2.801,1.586c0.299,0.182,0.546,0.332,0.748,0.454C431.84,425.787,431.926,425.847,431.921,425.857z"
						/>
				</g>
			</g>
			<g>
				<g>
					<path style="fill:#263238;" d="M395.351,421.446c0.008-0.021,0.205,0.038,0.558,0.163c0.354,0.12,0.852,0.333,1.45,0.63
						c1.198,0.591,2.773,1.599,4.253,3.016c1.476,1.422,2.545,2.956,3.184,4.129c0.321,0.586,0.554,1.075,0.688,1.424
						c0.139,0.347,0.205,0.542,0.185,0.551c-0.051,0.022-0.384-0.731-1.068-1.862c-0.681-1.13-1.76-2.615-3.21-4.013
						c-1.454-1.393-2.981-2.411-4.138-3.046C396.097,421.8,395.33,421.498,395.351,421.446z"/>
				</g>
			</g>
			<g>
				<g>
					<path style="fill:#263238;" d="M375.656,394.229c0.004-0.01,0.134,0.029,0.379,0.112c0.276,0.098,0.63,0.224,1.068,0.38
						c0.474,0.175,1.038,0.383,1.685,0.621c0.656,0.244,1.369,0.604,2.176,0.959c3.205,1.455,7.469,3.903,11.588,7.383
						c2.031,1.768,3.868,3.565,5.404,5.322c1.53,1.76,2.826,3.415,3.835,4.859c1.016,1.44,1.787,2.639,2.315,3.468
						c0.25,0.392,0.452,0.708,0.609,0.955c0.138,0.219,0.206,0.337,0.197,0.344s-0.095-0.099-0.25-0.307
						c-0.156-0.207-0.381-0.517-0.659-0.923c-0.56-0.809-1.358-1.987-2.394-3.406c-1.03-1.423-2.338-3.056-3.872-4.797
						c-1.54-1.737-3.372-3.517-5.391-5.274c-4.094-3.458-8.311-5.921-11.478-7.422c-0.797-0.367-1.501-0.74-2.148-0.999
						c-0.638-0.257-1.193-0.481-1.66-0.67c-0.429-0.179-0.776-0.323-1.046-0.435C375.776,394.298,375.653,394.239,375.656,394.229z"
						/>
				</g>
			</g>
			<g>
				<g>
					<path style="fill:#263238;" d="M418.824,399.5c-0.006,0.021-0.259-0.013-0.71-0.091c-0.245-0.045-0.516-0.095-0.818-0.151
						c-0.318-0.061-0.689-0.063-1.093-0.105c-1.601-0.116-3.933,0.016-6.117,1.207c-1.102,0.558-2.027,1.311-2.784,2.066
						c-0.768,0.749-1.351,1.53-1.79,2.213c-0.893,1.367-1.169,2.354-1.224,2.335c-0.017-0.004,0.033-0.256,0.181-0.694
						c0.164-0.431,0.416-1.056,0.852-1.76c0.422-0.71,0.998-1.521,1.772-2.3c0.763-0.784,1.708-1.566,2.844-2.141
						c2.254-1.228,4.666-1.327,6.285-1.15c0.409,0.057,0.785,0.075,1.104,0.154c0.301,0.076,0.571,0.144,0.815,0.205
						C418.588,399.405,418.83,399.479,418.824,399.5z"/>
				</g>
			</g>
			<g>
				<g>
					<path style="fill:#263238;" d="M427.77,371.747c0.005,0.01-0.111,0.081-0.337,0.208c-0.256,0.139-0.586,0.318-0.993,0.539
						c-0.864,0.465-2.106,1.152-3.616,2.041c-1.503,0.902-3.273,2.009-5.157,3.355c-1.878,1.349-3.895,2.918-5.757,4.824
						c-0.918,0.959-1.765,1.96-2.355,3.049c-0.583,1.12-1.14,2.202-1.653,3.241c-1.029,2.076-1.868,3.987-2.473,5.63
						c-0.604,1.643-0.98,3.011-1.203,3.964c-0.228,0.953-0.31,1.49-0.341,1.485c-0.011-0.002,0.002-0.137,0.036-0.394
						c0.032-0.257,0.086-0.635,0.185-1.117c0.187-0.966,0.533-2.351,1.113-4.014c0.582-1.662,1.403-3.593,2.422-5.683
						c0.507-1.046,1.06-2.133,1.639-3.255c0.613-1.139,1.472-2.154,2.403-3.126c1.885-1.929,3.919-3.498,5.816-4.841
						c1.902-1.34,3.691-2.431,5.213-3.31c1.529-0.868,2.79-1.525,3.672-1.957c0.419-0.2,0.758-0.361,1.021-0.487
						C427.64,371.789,427.766,371.737,427.77,371.747z"/>
				</g>
			</g>
			<g>
				<g>
					<path style="fill:#263238;" d="M402.811,398.698c-0.022,0.003-0.083-0.264-0.177-0.75c-0.104-0.549-0.234-1.238-0.389-2.056
						c-0.339-1.733-0.857-4.119-1.683-6.68c-0.818-2.564-1.814-4.795-2.542-6.404c-0.345-0.759-0.636-1.397-0.868-1.906
						c-0.202-0.452-0.305-0.706-0.285-0.716c0.02-0.01,0.16,0.226,0.396,0.661c0.236,0.435,0.568,1.07,0.96,1.864
						c0.781,1.587,1.817,3.818,2.642,6.402c0.832,2.58,1.318,4.989,1.602,6.737c0.139,0.875,0.24,1.585,0.291,2.078
						C402.812,398.422,402.832,398.695,402.811,398.698z"/>
				</g>
			</g>
			<g>
				<path style="fill:#455A64;" d="M402.167,378.447c-0.223-3.363-1.319-6.631-2.895-9.61c-4.32-8.169-12.44-14.224-21.502-16.034
					c6.635,9.89,13.271,19.78,19.906,29.67l2.571,5.296C402.001,384.89,402.39,381.81,402.167,378.447z"/>
			</g>
		</g>
		<g>
			<g>
				<g>
					<rect x="384.433" y="436.919" style="fill:#FF725E;" width="46.288" height="8.204"/>
				</g>
			</g>
			<g>
				<g>
					<polygon style="fill:#FF725E;" points="387.89,443.495 391.831,468.952 422.561,468.952 427.264,443.495 					"/>
				</g>
			</g>
			<g>
				<g>
					<g>
						<path style="fill:#263238;" d="M430.696,445.133c0,0.09-10.441,0.163-23.317,0.163c-12.881,0-23.32-0.073-23.32-0.163
							c0-0.09,10.439-0.163,23.32-0.163C420.255,444.971,430.696,445.043,430.696,445.133z"/>
					</g>
				</g>
			</g>
		</g>
	</g>
</g>
<g id="Boxes">
	<g>
		<g>
			<path style="fill:#FF725E;" d="M143.145,469.106h-41.068c-7.35,0-13.308-5.958-13.308-13.308v-41.068
				c0-7.35,5.958-13.308,13.308-13.308h41.068c7.35,0,13.308,5.958,13.308,13.308v41.068
				C156.453,463.148,150.495,469.106,143.145,469.106z"/>
		</g>
		<g style="opacity:0.3;">
			<path d="M143.145,469.106h-41.068c-7.35,0-13.308-5.958-13.308-13.308v-41.068c0-7.35,5.958-13.308,13.308-13.308h41.068
				c7.35,0,13.308,5.958,13.308,13.308v41.068C156.453,463.148,150.495,469.106,143.145,469.106z"/>
		</g>
		<g>
			<path style="fill:#FF725E;" d="M130.993,469.106H89.925c-7.35,0-13.308-5.958-13.308-13.308v-41.068
				c0-7.35,5.958-13.308,13.308-13.308h41.068c7.35,0,13.308,5.958,13.308,13.308v41.068
				C144.3,463.148,138.342,469.106,130.993,469.106z"/>
		</g>
		<g>
			<g>
				<g>
					<g>
						<g>
							<polygon style="fill:#FFFFFF;" points="87.089,436.239 93.907,429.421 107.056,441.109 129.013,419.067 135.344,425.885 
								106.082,454.257 							"/>
						</g>
					</g>
				</g>
			</g>
		</g>
	</g>
	<g>
		<g>
			<path style="fill:#263238;" d="M178.692,469.106H151.85c-4.543,0-8.226-3.683-8.226-8.226v-26.842
				c0-4.543,3.683-8.226,8.226-8.226h26.842c4.543,0,8.226,3.683,8.226,8.226v26.842
				C186.919,465.423,183.236,469.106,178.692,469.106z"/>
		</g>
		<g>
			<path style="fill:#455A64;" d="M170.919,469.106h-26.842c-4.543,0-8.226-3.683-8.226-8.226v-26.842
				c0-4.543,3.683-8.226,8.226-8.226h26.842c4.543,0,8.226,3.683,8.226,8.226v26.842
				C179.145,465.423,175.462,469.106,170.919,469.106z"/>
		</g>
		<g>
			<g>
				<g>
					<g>
						<g>
							<polygon style="fill:#FFFFFF;" points="142.549,448.082 146.91,443.721 155.321,451.197 169.366,437.098 173.416,441.459 
								154.698,459.608 							"/>
						</g>
					</g>
				</g>
			</g>
		</g>
	</g>
</g>
<g id="List">
	<g>
		<g>
			<g>
				<path style="fill:#FFFFFF;" d="M285.694,339.443H76.766c-3.975,0-7.198-3.223-7.198-7.198V40.862
					c0-3.975,3.223-7.198,7.198-7.198h208.928c3.975,0,7.198,3.223,7.198,7.198v291.383
					C292.892,336.221,289.669,339.443,285.694,339.443z"/>
			</g>
			<g>
				<g>
					<path style="fill:#263238;" d="M285.694,339.443c-0.014-0.059,0.953,0.114,2.626-0.53c0.821-0.328,1.81-0.893,2.685-1.882
						c0.889-0.961,1.626-2.388,1.8-4.113c0.051-6.955-0.014-17.237-0.015-30.465c-0.02-26.467-0.048-64.756-0.083-112.068
						c-0.01-23.658-0.02-49.571-0.032-77.389c-0.004-13.909-0.008-28.295-0.013-43.113c-0.002-7.409-0.004-14.926-0.006-22.546
						c0-1.905-0.001-3.816-0.001-5.734c0.12-1.898-0.401-3.785-1.636-5.219c-1.2-1.433-3-2.351-4.878-2.46
						c-1.911-0.045-3.883-0.012-5.831-0.022c-62.557,0.006-131.332,0.013-203.521,0.02c-2.18-0.008-4.333,1.059-5.605,2.828
						c-0.651,0.868-1.087,1.892-1.255,2.962c-0.167,1.054-0.081,2.201-0.103,3.318c0,4.486,0,8.958,0,13.415
						c0,8.914-0.001,17.77-0.001,26.561c-0.001,17.582-0.003,34.906-0.004,51.929c-0.005,34.045-0.01,66.884-0.015,98.168
						c-0.008,31.283-0.017,61.01-0.024,88.83c-0.001,3.477-0.001,6.925-0.002,10.342c0.007,1.662,0.628,3.296,1.706,4.538
						c1.067,1.254,2.594,2.087,4.204,2.328c0.797,0.13,1.636,0.083,2.474,0.092c0.835,0,1.668,0.001,2.499,0.001
						c1.662,0.001,3.316,0.001,4.963,0.002c3.293,0.001,6.554,0.003,9.782,0.004c12.913,0.006,25.306,0.012,37.135,0.017
						c47.312,0.035,85.598,0.063,112.061,0.083c13.226,0.021,23.497,0.038,30.467,0.049c3.479,0.011,6.133,0.02,7.923,0.026
						C284.779,339.426,285.694,339.443,285.694,339.443s-0.914,0.018-2.699,0.027c-1.79,0.006-4.444,0.014-7.923,0.026
						c-6.97,0.011-17.241,0.028-30.467,0.049c-26.464,0.02-64.75,0.048-112.061,0.083c-11.829,0.005-24.222,0.011-37.135,0.017
						c-3.228,0.001-6.489,0.003-9.782,0.004c-1.646,0.001-3.301,0.001-4.963,0.002c-0.831,0-1.664,0.001-2.499,0.001
						c-0.829-0.009-1.675,0.042-2.538-0.095c-1.707-0.255-3.326-1.137-4.458-2.465c-1.144-1.315-1.804-3.051-1.813-4.812
						c-0.002-3.418-0.003-6.866-0.005-10.344c-0.007-27.821-0.015-57.547-0.024-88.83c-0.005-31.283-0.01-64.122-0.015-98.168
						c-0.001-17.023-0.003-34.347-0.004-51.929c0-8.791-0.001-17.646-0.001-26.561c0-4.457,0-8.929,0-13.415
						c0.025-1.121-0.07-2.234,0.11-3.404c0.181-1.15,0.651-2.253,1.35-3.186c1.365-1.899,3.685-3.049,6.024-3.039
						c72.189,0.007,140.964,0.014,203.521,0.02c1.961,0.011,3.889-0.023,5.861,0.025c2.007,0.117,3.931,1.1,5.211,2.63
						c1.317,1.509,1.874,3.601,1.744,5.524c0,1.918-0.001,3.829-0.001,5.734c-0.002,7.62-0.004,15.137-0.006,22.546
						c-0.005,14.818-0.009,29.203-0.013,43.113c-0.012,27.818-0.022,53.731-0.032,77.389c-0.035,47.312-0.063,85.601-0.083,112.068
						c-0.031,13.233,0.003,23.501-0.083,30.475c-0.185,1.75-0.94,3.191-1.846,4.157c-0.892,0.994-1.895,1.555-2.725,1.878
						c-0.835,0.335-1.518,0.406-1.965,0.459C285.922,339.441,285.694,339.443,285.694,339.443z"/>
				</g>
			</g>
		</g>
		<g>
			<g>
				<path style="fill:#E0E0E0;" d="M252.046,137.817h-98.995c-3.482,0-6.304-2.822-6.304-6.304v-0.601
					c0-3.482,2.822-6.304,6.304-6.304h98.995c3.482,0,6.304,2.822,6.304,6.304v0.601
					C258.35,134.995,255.527,137.817,252.046,137.817z"/>
			</g>
			<g>
				<g>
					<path style="fill:#FF725E;" d="M129.576,147.337h-20.328c-2.838,0-5.138-2.301-5.138-5.138v-20.328
						c0-2.838,2.3-5.138,5.138-5.138h20.328c2.838,0,5.138,2.3,5.138,5.138v20.328C134.714,145.036,132.413,147.337,129.576,147.337
						z"/>
				</g>
				<g>
					<g>
						<g>
							<g>
								<g>
									<polygon style="fill:#FFFFFF;" points="108.845,132.475 111.928,129.393 117.873,134.677 127.801,124.711 130.664,127.794 
										117.433,140.623 									"/>
								</g>
							</g>
						</g>
					</g>
				</g>
			</g>
		</g>
		<g>
			<g>
				<path style="fill:#E0E0E0;" d="M252.046,185.292h-98.995c-3.482,0-6.304-2.822-6.304-6.304v-0.601
					c0-3.482,2.822-6.304,6.304-6.304h98.995c3.482,0,6.304,2.822,6.304,6.304v0.601
					C258.35,182.469,255.527,185.292,252.046,185.292z"/>
			</g>
			<g>
				<g>
					<path style="fill:#FF725E;" d="M129.576,194.811h-20.328c-2.838,0-5.138-2.3-5.138-5.138v-20.327
						c0-2.838,2.3-5.138,5.138-5.138h20.328c2.838,0,5.138,2.301,5.138,5.138v20.327
						C134.714,192.511,132.413,194.811,129.576,194.811z"/>
				</g>
				<g>
					<g>
						<g>
							<g>
								<g>
									<polygon style="fill:#FFFFFF;" points="108.845,179.95 111.928,176.867 117.873,182.152 127.801,172.186 130.664,175.268 
										117.433,188.097 									"/>
								</g>
							</g>
						</g>
					</g>
				</g>
			</g>
		</g>
		<g>
			<g>
				<path style="fill:#E0E0E0;" d="M252.046,232.766h-98.995c-3.482,0-6.304-2.822-6.304-6.304v-0.601
					c0-3.482,2.822-6.304,6.304-6.304h98.995c3.482,0,6.304,2.822,6.304,6.304v0.601
					C258.35,229.944,255.527,232.766,252.046,232.766z"/>
			</g>
			<g>
				<g>
					<path style="fill:#FF725E;" d="M129.576,242.286h-20.328c-2.838,0-5.138-2.301-5.138-5.138V216.82
						c0-2.838,2.3-5.138,5.138-5.138h20.328c2.838,0,5.138,2.3,5.138,5.138v20.327C134.714,239.986,132.413,242.286,129.576,242.286
						z"/>
				</g>
				<g>
					<g>
						<g>
							<g>
								<g>
									<polygon style="fill:#FFFFFF;" points="108.845,227.424 111.928,224.342 117.873,229.626 127.801,219.66 130.664,222.743 
										117.433,235.572 									"/>
								</g>
							</g>
						</g>
					</g>
				</g>
			</g>
		</g>
		<g>
			<g>
				<path style="fill:#E0E0E0;" d="M252.046,280.241h-98.995c-3.482,0-6.304-2.822-6.304-6.304v-0.601
					c0-3.481,2.822-6.304,6.304-6.304h98.995c3.482,0,6.304,2.822,6.304,6.304v0.601
					C258.35,277.419,255.527,280.241,252.046,280.241z"/>
			</g>
			<g>
				<g>
					<path style="fill:#FF725E;" d="M129.576,289.761h-20.328c-2.838,0-5.138-2.301-5.138-5.138v-20.328
						c0-2.838,2.3-5.138,5.138-5.138h20.328c2.838,0,5.138,2.3,5.138,5.138v20.328C134.714,287.46,132.413,289.761,129.576,289.761z
						"/>
				</g>
				<g>
					<g>
						<g>
							<g>
								<g>
									<polygon style="fill:#FFFFFF;" points="108.845,274.899 111.928,271.816 117.873,277.101 127.801,267.135 130.664,270.217 
										117.433,283.047 									"/>
								</g>
							</g>
						</g>
					</g>
				</g>
			</g>
		</g>
		<g>
			<path style="fill:#263238;" d="M132.113,84.365h-4.824l-0.896,2.216h-3.292l5.036-11.408h3.178l5.052,11.408h-3.357
				L132.113,84.365z M131.168,81.985l-1.466-3.65l-1.467,3.65H131.168z"/>
			<path style="fill:#263238;" d="M137.278,75.173h5.394c3.781,0,6.372,2.2,6.372,5.704c0,3.503-2.591,5.704-6.372,5.704h-5.394
				V75.173z M142.542,84.006c1.939,0,3.243-1.157,3.243-3.129c0-1.972-1.304-3.129-3.243-3.129h-2.037v6.258H142.542z"/>
			<path style="fill:#263238;" d="M161.917,75.173l-4.889,11.408h-3.178l-4.872-11.408h3.487l3.096,7.432l3.162-7.432H161.917z"/>
			<path style="fill:#263238;" d="M169.836,84.365h-4.824l-0.896,2.216h-3.292l5.036-11.408h3.178l5.052,11.408h-3.357
				L169.836,84.365z M168.89,81.985l-1.466-3.65l-1.467,3.65H168.89z"/>
			<path style="fill:#263238;" d="M185.854,75.173v11.408h-2.656l-5.036-6.079v6.079H175V75.173h2.656l5.036,6.079v-6.079H185.854z"
				/>
			<path style="fill:#263238;" d="M190.562,77.732h-3.504v-2.559h10.218v2.559h-3.488v8.849h-3.227V77.732z"/>
			<path style="fill:#263238;" d="M205.554,84.365h-4.824l-0.896,2.216h-3.291l5.036-11.408h3.178l5.052,11.408h-3.357
				L205.554,84.365z M204.608,81.985l-1.466-3.65l-1.467,3.65H204.608z"/>
			<path style="fill:#263238;" d="M218.198,80.633h2.852v4.726c-1.32,0.945-3.129,1.45-4.791,1.45c-3.634,0-6.291-2.46-6.291-5.932
				c0-3.471,2.656-5.932,6.355-5.932c2.135,0,3.862,0.733,4.987,2.086l-2.054,1.858c-0.782-0.864-1.678-1.271-2.77-1.271
				c-1.956,0-3.259,1.287-3.259,3.259c0,1.923,1.304,3.259,3.227,3.259c0.603,0,1.173-0.114,1.744-0.375V80.633z"/>
			<path style="fill:#263238;" d="M232.261,84.088v2.493h-9.159V75.173h8.947v2.494h-5.753v1.923h5.068v2.412h-5.068v2.086H232.261z
				"/>
			<path style="fill:#263238;" d="M233.254,85.554l1.059-2.379c1.01,0.668,2.445,1.124,3.765,1.124c1.336,0,1.858-0.375,1.858-0.929
				c0-1.809-6.486-0.489-6.486-4.726c0-2.037,1.663-3.699,5.052-3.699c1.483,0,3.015,0.342,4.139,0.994l-0.994,2.396
				c-1.092-0.586-2.167-0.88-3.162-0.88c-1.352,0-1.841,0.456-1.841,1.027c0,1.744,6.47,0.44,6.47,4.645
				c0,1.988-1.662,3.683-5.052,3.683C236.187,86.809,234.329,86.304,233.254,85.554z"/>
		</g>
	</g>
</g>
<g id="Character_00000075861960844569287810000012557618583975322529_">
	<g>
		<g>
			<g>
				<g>
					<g>
						<g>
							<g>
								<g>
									<g>
										<g>
											<g>
												<g>
													<g>
														<g>
															<g>
																<g>
																	<g>
																		<path style="fill:#263238;" d="M332.208,433.785l-0.858,22.577c0,0,22.66,8.455,22.907,12.642l-43.835-0.092
																			l-0.106-35.232L332.208,433.785z"/>
																	</g>
																</g>
															</g>
														</g>
													</g>
												</g>
											</g>
										</g>
									</g>
								</g>
							</g>
						</g>
						<g>
							<g>
								<g>
									<g>
										<g>
											<g>
												<g>
													<g>
														<g>
															<g>
																<g>
																	<g>
																		<g>
																			<path style="fill:#E0E0E0;" d="M317.799,454.434c-0.849,0.23-1.437,1.183-1.242,2.04
																				c0.195,0.858,1.159,1.464,2.012,1.249c0.853-0.215,1.594-1.337,1.304-2.167c-0.29-0.83-1.46-1.48-2.236-1.067"/>
																		</g>
																	</g>
																</g>
															</g>
														</g>
													</g>
												</g>
											</g>
										</g>
									</g>
								</g>
							</g>
						</g>
						<g>
							<g>
								<g>
									<g>
										<g>
											<g>
												<g>
													<g>
														<g>
															<g>
																<g>
																	<g>
																		<path style="fill:#455A64;" d="M310.423,468.912l0.128-3.552l41.98,1.416c0,0,1.95,0.853,1.726,2.227
																			L310.423,468.912z"/>
																	</g>
																</g>
															</g>
														</g>
													</g>
												</g>
											</g>
										</g>
									</g>
								</g>
							</g>
						</g>
						<g>
							<g>
								<g>
									<g>
										<g>
											<g>
												<g>
													<g>
														<g>
															<g>
																<g>
																	<g>
																		<g>
																			<path style="fill:#FFFFFF;" d="M332.061,456.14c-0.008,0.214-1.078,0.309-2.133,0.995
																				c-1.073,0.659-1.618,1.585-1.814,1.499c-0.197-0.042,0.125-1.321,1.416-2.129
																				C330.814,455.686,332.108,455.944,332.061,456.14z"/>
																		</g>
																	</g>
																</g>
															</g>
														</g>
													</g>
												</g>
											</g>
										</g>
									</g>
								</g>
							</g>
						</g>
						<g>
							<g>
								<g>
									<g>
										<g>
											<g>
												<g>
													<g>
														<g>
															<g>
																<g>
																	<g>
																		<g>
																			<path style="fill:#FFFFFF;" d="M336.655,458.051c0.048,0.208-0.879,0.57-1.608,1.473
																				c-0.755,0.882-0.941,1.861-1.154,1.851c-0.201,0.034-0.347-1.22,0.581-2.327
																				C335.391,457.935,336.651,457.847,336.655,458.051z"/>
																		</g>
																	</g>
																</g>
															</g>
														</g>
													</g>
												</g>
											</g>
										</g>
									</g>
								</g>
							</g>
						</g>
						<g>
							<g>
								<g>
									<g>
										<g>
											<g>
												<g>
													<g>
														<g>
															<g>
																<g>
																	<g>
																		<g>
																			<path style="fill:#FFFFFF;" d="M339.254,463.56c-0.195,0.045-0.49-1.025,0.062-2.196
																				c0.544-1.176,1.554-1.636,1.644-1.457c0.121,0.176-0.531,0.804-0.969,1.772
																				C339.53,462.637,339.467,463.539,339.254,463.56z"/>
																		</g>
																	</g>
																</g>
															</g>
														</g>
													</g>
												</g>
											</g>
										</g>
									</g>
								</g>
							</g>
						</g>
						<g>
							<g>
								<g>
									<g>
										<g>
											<g>
												<g>
													<g>
														<g>
															<g>
																<g>
																	<g>
																		<g>
																			<path style="fill:#FFFFFF;" d="M331.686,450.973c-0.09,0.195-1.072-0.103-2.281-0.023
																				c-1.212,0.055-2.154,0.459-2.265,0.275c-0.124-0.155,0.797-0.945,2.224-1.019
																				C330.788,450.122,331.791,450.805,331.686,450.973z"/>
																		</g>
																	</g>
																</g>
															</g>
														</g>
													</g>
												</g>
											</g>
										</g>
									</g>
								</g>
							</g>
						</g>
					</g>
				</g>
				<g>
					<g>
						<g>
							<g>
								<g>
									<g>
										<g>
											<g>
												<g>
													<path style="fill:#263238;" d="M278.549,430.715l-2.373,27.231l4.333,22.079c0.312,1.591-0.788,3.115-2.397,3.318l0,0
														c-0.901,0.114-1.795-0.209-2.409-0.879c-3.907-4.259-18.2-20-17.914-21.983c0.331-2.297,0.597-28.89,0.597-28.89
														L278.549,430.715z"/>
												</g>
											</g>
										</g>
									</g>
								</g>
							</g>
						</g>
						<g>
							<g>
								<g>
									<g>
										<g>
											<g>
												<g>
													<path style="fill:#455A64;" d="M278.112,483.343l-20.205-24.702l-0.074,1.156c-0.064,0.999,0.224,1.989,0.823,2.792
														c1.602,2.147,6.153,7.977,16.966,19.872C276.249,483.152,277.187,483.485,278.112,483.343L278.112,483.343z"/>
												</g>
											</g>
										</g>
									</g>
								</g>
							</g>
						</g>
						<g style="opacity:0.6;">
							<g>
								<g>
									<g>
										<g>
											<g>
												<g>
													<g>
														<path style="fill:#FFFFFF;" d="M264.069,450.2c0.653,0.516,0.81,1.564,0.321,2.238
															c-0.49,0.674-1.554,0.842-2.216,0.337c-0.662-0.504-0.889-1.757-0.328-2.372c0.562-0.615,1.822-0.745,2.344-0.096"/>
													</g>
												</g>
											</g>
										</g>
									</g>
								</g>
							</g>
						</g>
						<g>
							<g>
								<g>
									<g>
										<g>
											<g>
												<g>
													<g>
														<path style="fill:#FFFFFF;" d="M272.642,471.024c0.149,0.086,0.856-1.304,2.528-1.968
															c1.651-0.714,3.134-0.233,3.179-0.399c0.028-0.065-0.304-0.3-0.936-0.431c-0.626-0.134-1.555-0.104-2.473,0.275
															c-0.916,0.382-1.593,1.018-1.942,1.556C272.644,470.598,272.575,470.998,272.642,471.024z"/>
													</g>
												</g>
											</g>
										</g>
									</g>
								</g>
							</g>
						</g>
						<g>
							<g>
								<g>
									<g>
										<g>
											<g>
												<g>
													<g>
														<path style="fill:#FFFFFF;" d="M274.35,474.802c0.122,0.127,1.055-0.704,2.491-1.018
															c1.43-0.346,2.631-0.006,2.686-0.173c0.088-0.134-1.188-0.797-2.821-0.413
															C275.071,473.566,274.213,474.719,274.35,474.802z"/>
													</g>
												</g>
											</g>
										</g>
									</g>
								</g>
							</g>
						</g>
						<g>
							<g>
								<g>
									<g>
										<g>
											<g>
												<g>
													<g>
														<path style="fill:#FFFFFF;" d="M269.325,466.111c0.12,0.137,1.547-1.147,3.739-1.831
															c2.181-0.718,4.09-0.502,4.107-0.684c0.054-0.143-1.949-0.652-4.29,0.112
															C270.533,464.448,269.199,466.025,269.325,466.111z"/>
													</g>
												</g>
											</g>
										</g>
									</g>
								</g>
							</g>
						</g>
						<g>
							<g>
								<g>
									<g>
										<g>
											<g>
												<g>
													<g>
														<path style="fill:#FFFFFF;" d="M269.355,457.772c0.062,0.168,1.609-0.365,3.575-0.31
															c1.967,0.028,3.49,0.626,3.559,0.46c0.083-0.129-1.433-1.026-3.547-1.061
															C270.83,456.808,269.277,457.64,269.355,457.772z"/>
													</g>
												</g>
											</g>
										</g>
									</g>
								</g>
							</g>
						</g>
						<g>
							<g>
								<g>
									<g>
										<g>
											<g>
												<g>
													<g>
														<path style="fill:#FFFFFF;" d="M269.849,449.761c0.074,0.163,1.648-0.649,3.713-0.422
															c2.07,0.182,3.454,1.286,3.559,1.14c0.049-0.054-0.227-0.415-0.833-0.819c-0.6-0.404-1.553-0.806-2.666-0.919
															c-1.114-0.108-2.127,0.1-2.795,0.379C270.154,449.398,269.813,449.698,269.849,449.761z"/>
													</g>
												</g>
											</g>
										</g>
									</g>
								</g>
							</g>
						</g>
						<g>
							<g>
								<g>
									<g>
										<g>
											<g>
												<g>
													<g>
														<path style="fill:#FFFFFF;" d="M273.612,447.813c0.035,0.003,0.12-0.36,0.103-1.029
															c-0.018-0.665-0.147-1.649-0.647-2.755c-0.262-0.526-0.527-1.197-1.266-1.605c-0.367-0.206-0.936-0.171-1.282,0.169
															c-0.344,0.331-0.474,0.772-0.511,1.204c-0.083,1.733,1.296,3.503,3.228,3.877c1.942,0.34,3.785-0.663,4.655-2.108
															c0.194-0.376,0.342-0.843,0.16-1.318c-0.178-0.478-0.721-0.699-1.116-0.657c-0.818,0.069-1.359,0.503-1.857,0.819
															c-0.989,0.695-1.621,1.453-1.997,2c-0.378,0.551-0.51,0.899-0.48,0.915c0.091,0.078,0.775-1.296,2.713-2.562
															c0.486-0.289,1.05-0.658,1.636-0.674c0.286-0.01,0.524,0.119,0.61,0.354c0.09,0.227,0.011,0.566-0.156,0.86
															c-0.733,1.181-2.42,2.094-4.057,1.781c-1.631-0.298-2.84-1.856-2.787-3.252c0.018-0.336,0.129-0.668,0.321-0.855
															c0.189-0.185,0.461-0.221,0.706-0.103c0.517,0.248,0.836,0.843,1.097,1.339
															C273.707,446.288,273.489,447.832,273.612,447.813z"/>
													</g>
												</g>
											</g>
										</g>
									</g>
								</g>
							</g>
						</g>
					</g>
				</g>
				<g>
					<g>
						<g>
							<g>
								<path style="fill:#263238;" d="M353.324,243.465c0,0,3.324,12.868,2.118,28.545c-0.466,6.066-20.938,173.887-20.938,173.887
									h-27.639l7.769-157.728l-2.263,0.491c0,0-15.088,67.271-16.319,78.163c-1.107,9.789-13.831,80.913-13.831,80.913
									l-25.271,0.29l8.071-94.076l9.392-90.268l3.534-26.276L353.324,243.465z"/>
							</g>
						</g>
					</g>
				</g>
			</g>
			<g>
				<g>
					<g>
						<path style="fill:#455A64;" d="M313.629,277.467c-0.012,0.014,0.048,0.078,0.179,0.189c0.135,0.101,0.355,0.237,0.674,0.318
							c0.625,0.179,1.667,0.088,2.621-0.621c0.993-0.697,1.588-2.086,1.789-3.572c0.198-1.502,0.228-3.117,0.34-4.826
							c0.186-3.414,0.324-6.505,0.397-8.745c0.073-2.239,0.081-3.626,0.007-3.63c-0.074-0.004-0.217,1.376-0.387,3.609
							c-0.17,2.234-0.369,5.323-0.554,8.736c-0.111,1.701-0.13,3.348-0.294,4.787c-0.169,1.429-0.682,2.689-1.531,3.339
							c-0.834,0.676-1.766,0.82-2.345,0.717C313.928,277.676,313.659,277.418,313.629,277.467z"/>
					</g>
				</g>
				<g>
					<g>
						<path style="fill:#455A64;" d="M272.968,261.24c-0.008,0.033,0.264,0.142,0.774,0.279c0.51,0.138,1.264,0.286,2.209,0.371
							c1.879,0.179,4.575,0.002,7.285-1.088c2.712-1.088,4.781-2.826,6.015-4.255c0.623-0.715,1.065-1.343,1.338-1.796
							c0.274-0.452,0.395-0.719,0.366-0.737c-0.078-0.051-0.693,0.94-1.984,2.274c-1.277,1.332-3.315,2.962-5.936,4.014
							c-2.619,1.052-5.217,1.286-7.062,1.207C274.12,261.44,272.989,261.149,272.968,261.24z"/>
					</g>
				</g>
				<g>
					<g>
						<path style="fill:#455A64;" d="M342.309,254.22c-0.056,0.006-0.01,1.087,0.419,2.774c0.424,1.684,1.307,3.958,2.78,6.182
							c1.48,2.22,3.235,3.915,4.624,4.958c1.39,1.05,2.368,1.511,2.395,1.461c0.125-0.142-3.691-2.318-6.57-6.717
							C343.017,258.521,342.488,254.16,342.309,254.22z"/>
					</g>
				</g>
			</g>
		</g>
		<g>
			<g>
				<polygon style="fill:#AE7461;" points="426.736,206.736 433.079,208.742 444.602,202.373 451.141,220.579 435.46,224.311 
					423.582,223.004 				"/>
			</g>
			<g>
				<path style="fill:#E0E0E0;" d="M352.965,133.639c0,0,6.48,3.89,11.847,17.108c10.543,25.966,17.165,39.982,17.165,39.982
					l48.401,15.288l-3.866,19.402c0,0-49.062-6.835-55.633-9.299c-8.988-3.37-15.654-21.098-15.654-21.098L352.965,133.639z"/>
			</g>
		</g>
		<g>
			<g>
				<g>
					<g>
						<g>
							<g>
								<g>
									<path style="fill:#263238;" d="M339.663,75.386c2.497,0.157,4.952-1.796,5.36-4.265c0.408-2.469-1.289-5.107-3.704-5.761
										c1.464-1.661,1.719-4.276,0.604-6.189c-1.115-1.913-3.517-2.979-5.683-2.522c-0.202-2.177-1.611-4.202-3.583-5.148
										c-1.971-0.945-4.433-0.775-6.257,0.431c-2.516-1.945-6.408-1.826-8.8,0.27c-2.14-0.284-4.395,0.962-5.293,2.925
										c-0.898,1.963-0.366,4.484,1.248,5.917"/>
								</g>
							</g>
						</g>
					</g>
					<g>
						<g>
							<g>
								<path style="fill:#AE7461;" d="M316.758,57.291l1.121-0.056c11.278-0.561,21.096,7.632,22.561,18.829
									c1.363,10.414,2.734,21.936,2.944,27.549c0.434,11.621-11.093,14.005-11.093,14.005l1.676,13.905l-28.231,0.527
									l-5.008-50.483C299.088,69.56,304.71,58.597,316.758,57.291z"/>
							</g>
							<g>
								<g>
									<g>
										<g>
											<g>
												<g>
													<g>
														<path style="fill:#6F4439;" d="M332.386,117.596c0,0-7.395,0.815-15.44-3.698c0,0,3.995,8.181,15.532,6.559
															L332.386,117.596z"/>
													</g>
												</g>
											</g>
										</g>
									</g>
								</g>
							</g>
							<g>
								<g>
									<g>
										<g>
											<g>
												<g>
													<g>
														<g>
															<g>
																<g>
																	<path style="fill:#263238;" d="M336.262,86.779c0.075,0.874-0.604,1.658-1.516,1.753
																		c-0.91,0.094-1.709-0.536-1.784-1.41c-0.074-0.874,0.604-1.659,1.514-1.754
																		C335.388,85.273,336.188,85.905,336.262,86.779z"/>
																</g>
															</g>
														</g>
													</g>
												</g>
											</g>
										</g>
									</g>
								</g>
							</g>
							<g>
								<g>
									<g>
										<g>
											<g>
												<g>
													<g>
														<g>
															<g>
																<g>
																	<g>
																		<path style="fill:#263238;" d="M338.226,81.871c-0.195,0.227-1.497-0.641-3.282-0.548
																			c-1.784,0.068-3.048,1.051-3.252,0.842c-0.1-0.092,0.09-0.493,0.639-0.937c0.541-0.441,1.479-0.891,2.591-0.942
																			c1.112-0.049,2.067,0.314,2.626,0.706C338.117,81.387,338.322,81.769,338.226,81.871z"/>
																	</g>
																</g>
															</g>
														</g>
													</g>
												</g>
											</g>
										</g>
									</g>
								</g>
							</g>
							<g>
								<g>
									<g>
										<g>
											<g>
												<g>
													<g>
														<g>
															<g>
																<g>
																	<path style="fill:#263238;" d="M319.981,87.229c0.075,0.874-0.605,1.658-1.516,1.752
																		c-0.91,0.095-1.709-0.536-1.784-1.41c-0.074-0.874,0.605-1.659,1.515-1.754
																		C319.107,85.722,319.906,86.354,319.981,87.229z"/>
																</g>
															</g>
														</g>
													</g>
												</g>
											</g>
										</g>
									</g>
								</g>
							</g>
							<g>
								<g>
									<g>
										<g>
											<g>
												<g>
													<g>
														<g>
															<g>
																<g>
																	<g>
																		<path style="fill:#263238;" d="M320.699,83.075c-0.195,0.227-1.499-0.641-3.283-0.547
																			c-1.783,0.068-3.048,1.051-3.253,0.842c-0.1-0.092,0.088-0.493,0.64-0.936c0.541-0.441,1.478-0.891,2.59-0.942
																			c1.112-0.049,2.068,0.314,2.626,0.706C320.588,82.591,320.794,82.973,320.699,83.075z"/>
																	</g>
																</g>
															</g>
														</g>
													</g>
												</g>
											</g>
										</g>
									</g>
								</g>
							</g>
							<g>
								<g>
									<g>
										<g>
											<g>
												<g>
													<g>
														<g>
															<g>
																<g>
																	<path style="fill:#263238;" d="M327.834,95.99c-0.014-0.101,1.086-0.348,2.873-0.667
																		c0.453-0.069,0.88-0.182,0.942-0.497c0.091-0.334-0.124-0.816-0.371-1.336c-0.483-1.081-0.989-2.215-1.52-3.403
																		c-2.117-4.848-3.674-8.843-3.478-8.927c0.196-0.083,2.071,3.778,4.188,8.627c0.511,1.196,1,2.336,1.465,3.427
																		c0.198,0.509,0.524,1.082,0.325,1.777c-0.106,0.347-0.428,0.611-0.716,0.704c-0.288,0.104-0.544,0.121-0.769,0.146
																		C328.967,96.027,327.846,96.09,327.834,95.99z"/>
																</g>
															</g>
														</g>
													</g>
												</g>
											</g>
										</g>
									</g>
								</g>
							</g>
							<g>
								<g>
									<g>
										<g>
											<g>
												<g>
													<path style="fill:#263238;" d="M321.905,76.131c-0.213,0.464-1.767,0.05-3.653,0.082
														c-1.887-0.01-3.456,0.424-3.652-0.038c-0.085-0.22,0.229-0.643,0.89-1.039c0.655-0.396,1.665-0.727,2.796-0.734
														c1.131-0.006,2.129,0.313,2.769,0.701C321.701,75.491,321.999,75.91,321.905,76.131z"/>
												</g>
											</g>
										</g>
									</g>
								</g>
							</g>
							<g>
								<g>
									<g>
										<g>
											<g>
												<g>
													<path style="fill:#263238;" d="M337.947,74.507c-0.356,0.424-1.85,0.076-3.622,0.145
														c-1.774,0.017-3.258,0.435-3.624,0.028c-0.162-0.198,0.054-0.616,0.691-1.033c0.627-0.414,1.692-0.781,2.91-0.81
														c1.219-0.028,2.292,0.287,2.929,0.671C337.876,73.894,338.103,74.301,337.947,74.507z"/>
												</g>
											</g>
										</g>
									</g>
								</g>
							</g>
							<g>
								<g>
									<g>
										<g>
											<g>
												<path style="fill:#263238;" d="M339.059,70.793c0,0-3.425-7.121-7.016-8.644c-4.348-1.844-5.944,2.907-10.047,1.977
													c-4.103-0.93-8.254-2.7-12.234,0.633c-4.356,3.648-2.116,5.945-2.14,11.112c-0.096,20.949-3.617,27.047-5.192,17.26
													c-0.172-1.072-3.207-1.781-3.877-6.314c-0.868-5.878-1.452-13.039-0.342-17.296c0.936-3.589,2.829-6.13,6.307-9.001
													c5.491-4.532,13.32-5.012,18.666-4.741C328.531,56.05,339.091,61.662,339.059,70.793z"/>
											</g>
										</g>
									</g>
								</g>
							</g>
							<g>
								<g>
									<g>
										<g>
											<g>
												<path style="fill:#AE7461;" d="M303.155,92.779c-0.162-1.789-1.777-3.128-3.555-2.869
													c-2.156,0.313-4.505,1.663-4.14,6.132c0.648,7.928,8.474,5.642,8.469,5.413
													C303.926,101.3,303.456,96.094,303.155,92.779z"/>
											</g>
										</g>
									</g>
								</g>
							</g>
							<g>
								<g>
									<g>
										<g>
											<g>
												<path style="fill:#6F4439;" d="M301.961,98.614c-0.037-0.022-0.13,0.108-0.355,0.234
													c-0.219,0.123-0.604,0.227-1.031,0.105c-0.863-0.239-1.676-1.511-1.832-2.937c-0.079-0.72,0.016-1.419,0.225-2.009
													c0.195-0.6,0.536-1.036,0.952-1.145c0.412-0.132,0.731,0.097,0.846,0.312c0.124,0.213,0.087,0.375,0.13,0.386
													c0.024,0.018,0.159-0.147,0.069-0.469c-0.046-0.155-0.154-0.334-0.353-0.471c-0.203-0.139-0.489-0.195-0.78-0.139
													c-0.608,0.092-1.112,0.7-1.342,1.347c-0.263,0.653-0.387,1.44-0.298,2.249c0.181,1.594,1.121,3.022,2.294,3.259
													c0.57,0.1,1.021-0.106,1.246-0.313C301.962,98.806,301.989,98.626,301.961,98.614z"/>
											</g>
										</g>
									</g>
								</g>
							</g>
						</g>
						<g>
							<g>
								<g>
									<g>
										<path style="fill:#263238;" d="M302.546,77.387c1.066,0.653,2.192,1.325,3.44,1.386c1.249,0.061,2.634-0.723,2.783-1.964
											c0.067-0.558-0.1-1.192,0.242-1.637c0.408-0.531,1.216-0.411,1.885-0.374c2.321,0.13,4.891-2.554,5.368-4.829
											c0.632,0.852,1.935,1.055,2.798,0.436c0.863-0.619,1.171-0.963,1.829-1.796c0.658-0.833,1.601-1.596,2.658-1.499
											c0.591,0.054,1.158,0.376,1.746,0.295c1.038-0.145,1.487-1.391,1.593-2.434c0.106-1.043,0.169-2.256,1.024-2.863
											c0.792-0.562,1.868-0.313,2.835-0.22c0.967,0.094,2.195-0.193,2.394-1.144c0.104-0.499-0.133-1.006-0.427-1.422
											c-1.333-1.885-4.072-2.616-6.167-1.645c-0.907-2.585-3.462-4.505-6.198-4.657c-2.736-0.152-5.488,1.473-6.675,3.942
											c-1.754-1.439-4.224-1.957-6.409-1.343c-2.184,0.614-4.023,2.342-4.771,4.484c-1.957-0.412-4.121,0.444-5.267,2.083
											c-1.145,1.639-1.204,3.966-0.144,5.662c-1.387,0.886-2.538,2.365-2.486,4.01c0.052,1.645,1.734,3.203,3.299,2.692
											c-0.577,1.312,0.03,3.022,1.306,3.676c1.276,0.653,3.019,0.147,3.746-1.088"/>
									</g>
								</g>
							</g>
						</g>
						<g>
							<g>
								<g>
									<g>
										<g>
											<path style="fill:#455A64;" d="M327.253,59.984c0.007,0,0.008,0.049,0.005,0.146c-0.006,0.096-0.004,0.24-0.03,0.427
												c-0.055,0.37-0.175,0.921-0.5,1.559c-0.328,0.629-0.849,1.362-1.667,1.965c-0.801,0.608-1.918,1.096-3.207,1.089
												l0.126-0.183c0.28,0.667,0.253,1.485-0.051,2.2c-0.285,0.726-0.758,1.38-1.262,2.02
												c-0.259,0.308-0.479,0.666-0.843,0.955c-0.355,0.278-0.787,0.45-1.235,0.529c-0.89,0.159-1.914-0.068-2.601-0.789
												l0.293-0.1c-0.124,1.588-0.943,3.212-2.321,4.246c-0.728,0.583-1.645,0.963-2.565,0.984
												c-0.92,0.037-1.787-0.19-2.598-0.436l0.208-0.104c-0.378,1.008-0.992,1.883-1.758,2.544
												c-0.751,0.659-1.775,1.075-2.729,0.891c-1.894-0.303-3.214-1.8-3.538-3.256l0.184,0.075
												c-0.905,0.553-1.9,0.651-2.709,0.536c-0.819-0.108-1.474-0.429-1.945-0.754c-0.473-0.332-0.761-0.682-0.935-0.926
												c-0.162-0.254-0.23-0.396-0.222-0.401c0.038-0.035,0.293,0.59,1.232,1.216c0.468,0.298,1.107,0.589,1.894,0.674
												c0.777,0.093,1.719-0.022,2.554-0.551l0.145-0.092l0.04,0.167c0.32,1.356,1.589,2.751,3.344,3.013
												c0.864,0.158,1.764-0.213,2.475-0.837c0.715-0.623,1.3-1.466,1.65-2.413l0.055-0.15l0.152,0.046
												c0.798,0.24,1.635,0.451,2.484,0.415c0.851-0.024,1.674-0.362,2.368-0.915c1.302-0.978,2.071-2.498,2.196-4.002
												l0.031-0.378l0.262,0.279c0.58,0.617,1.497,0.837,2.297,0.696c0.402-0.069,0.786-0.22,1.095-0.46
												c0.302-0.23,0.533-0.585,0.795-0.896c0.503-0.629,0.964-1.259,1.236-1.935c0.289-0.669,0.315-1.388,0.074-1.993
												L321.66,64.9l0.2,0.003c1.215,0.021,2.291-0.423,3.075-0.995c0.801-0.565,1.323-1.262,1.661-1.864
												C327.26,60.808,327.195,59.968,327.253,59.984z"/>
										</g>
									</g>
								</g>
							</g>
						</g>
					</g>
				</g>
			</g>
			<g>
				<g>
					<g>
						<g>
							<g>
								<g>
									<g>
										<g>
											<g>
												<g>
													<g>
														<g>
															<path style="fill:#263238;" d="M327.748,102.116c-0.059-0.294-1.992,0.211-3.799-1.081
																c-1.811-1.288-2.137-3.405-2.411-3.349c-0.128,0.005-0.254,0.558-0.049,1.433c0.195,0.86,0.797,2.034,1.903,2.825
																c1.107,0.787,2.343,0.925,3.153,0.782C327.372,102.587,327.794,102.245,327.748,102.116z"/>
														</g>
													</g>
												</g>
											</g>
										</g>
									</g>
								</g>
							</g>
						</g>
					</g>
				</g>
			</g>
		</g>
		<g>
			<g>
				<g>
					<g>
						<g>
							<g>
								<g>
									<g>
										<g>
											<g>
												<path style="fill:#E0E0E0;" d="M374.881,175.54c-0.177-0.627-10.516-28.77-13.815-34.931
													c-3.946-7.369-12.242-10.629-17.391-10.946c-5.15-0.317-60.256,4.074-60.256,4.074s-16.461,3.687-18.559,17.844
													c-2.415,16.297-4.531,53.604-4.531,53.604l25.083-12.855l3.25-8.183l51.895,11.579l12.672-18.744L374.881,175.54z"/>
											</g>
										</g>
									</g>
								</g>
								<g>
									<g>
										<g>
											<g>
												<g>
													<path style="fill:#E0E0E0;" d="M279.778,135.342l21.525-9.49l2.412-9.283l25.125,11.878l5.263-5.814l2.203,6.553
														l5.506,1.8l12.868,22.632l-0.04,48.226l2.604,41.6l-2.79,6.567l-23.052,3.401c-2.521,0.372-5.082,0.375-7.603,0.008
														l-46.792-7.65l-1.206-13.744l4.998-37.883L279.778,135.342z"/>
												</g>
											</g>
										</g>
									</g>
									<g>
										<g>
											<g>
												<g>
													<g>
														<path style="fill:#E0E0E0;" d="M303.715,116.569c0,0,2.809,0.813,10.024,4.663c7.068,3.771,15.101,7.216,15.101,7.216
															l-0.611,11.345l-26.739-13.424"/>
													</g>
												</g>
											</g>
										</g>
									</g>
									<g>
										<g>
											<g>
												<g>
													<g>
														<polyline style="fill:#E0E0E0;" points="334.103,122.633 328.84,128.447 331.652,140.609 336.34,129.617 
																													"/>
													</g>
												</g>
											</g>
										</g>
									</g>
									<g style="opacity:0.3;">
										<g>
											<g>
												<g>
													<path d="M328.938,129.703c0.233,0.174,1.694,14.035,1.694,14.035l-26.802-16.194l24.399,12.249L328.938,129.703z"/>
												</g>
											</g>
										</g>
									</g>
								</g>
								<g>
									<path style="fill:#455A64;" d="M328.756,181.434c-0.402-10.602,1.269-37.649,1.269-37.649l3.494-0.563
										c0,0,6.526,26.293,8.963,58.512c0.986,13.039,0.986,28.141,0.986,28.141l-7.018,15.063l-7.756-14.964
										C328.694,229.974,329.245,194.317,328.756,181.434z"/>
								</g>
								<g>
									<g>
										<g>
											<g>
												<g>
													<path style="fill:#263238;" d="M278.175,136.982c-0.041,0.052,0.726,0.65,1.811,1.768
														c1.086,1.114,2.449,2.797,3.577,4.887c1.121,2.095,1.774,4.16,2.104,5.68c0.334,1.522,0.409,2.491,0.475,2.486
														c0.026-0.002,0.026-0.245,0.006-0.685c-0.014-0.441-0.087-1.076-0.223-1.852c-0.267-1.553-0.892-3.672-2.034-5.805
														c-1.148-2.128-2.571-3.818-3.719-4.898c-0.573-0.542-1.063-0.953-1.422-1.208
														C278.394,137.095,278.191,136.962,278.175,136.982z"/>
												</g>
											</g>
										</g>
									</g>
								</g>
								<g>
									<g>
										<g>
											<g>
												<polygon style="fill:#455A64;" points="328.756,133.873 331.149,132.939 333.418,136.83 333.828,143.223 
													330.632,143.738 328.229,139.793 												"/>
											</g>
										</g>
									</g>
								</g>
								<g>
									<g>
										<g>
											<g>
												<g>
													<path style="fill:#263238;" d="M354.641,152.89c-0.103,0-0.186,13.838-0.186,30.904
														c0,17.072,0.083,30.907,0.186,30.907c0.103,0,0.186-13.835,0.186-30.907
														C354.827,166.727,354.743,152.89,354.641,152.89z"/>
												</g>
											</g>
										</g>
									</g>
								</g>
								<g>
									<g>
										<g>
											<g>
												<g>
													<path style="fill:#263238;" d="M328.587,128.349c-0.046,0.032,0.516,0.891,1.365,2.312
														c0.849,1.421,1.972,3.413,3.042,5.698c0.087,0.188,0.174,0.374,0.254,0.548l0.167,0.36l0.17-0.357
														c1.032-2.171,1.776-4.19,2.237-5.666c0.232-0.738,0.398-1.338,0.5-1.755c0.102-0.418,0.144-0.651,0.121-0.658
														c-0.051-0.015-0.338,0.885-0.862,2.331c-0.522,1.447-1.302,3.436-2.331,5.588l0.337,0.003
														c-0.081-0.175-0.168-0.363-0.255-0.552c-1.078-2.301-2.246-4.288-3.156-5.679c-0.455-0.696-0.843-1.246-1.122-1.619
														C328.775,128.531,328.608,128.335,328.587,128.349z"/>
												</g>
											</g>
										</g>
									</g>
								</g>
								<g>
									<g>
										<g>
											<g>
												<g>
													<path style="fill:#263238;" d="M301.302,125.852c-0.005,0.011,0.121,0.087,0.367,0.22
														c0.284,0.148,0.643,0.336,1.085,0.567c0.987,0.512,2.341,1.213,3.995,2.069c3.37,1.753,7.985,4.25,13.099,6.982
														c3.115,1.66,6.065,3.197,8.631,4.481l0.237,0.118l0.003-0.262c0.033-3.329,0.06-6.133,0.08-8.161
														c-0.002-0.953-0.003-1.722-0.004-2.301c-0.007-0.532-0.019-0.817-0.037-0.817c-0.018,0-0.04,0.284-0.066,0.815
														c-0.022,0.578-0.051,1.346-0.087,2.299c-0.053,2.028-0.127,4.831-0.214,8.159l0.239-0.144
														c-2.551-1.307-5.491-2.856-8.605-4.515c-5.112-2.732-9.751-5.194-13.154-6.888c-1.7-0.85-3.087-1.517-4.051-1.965
														c-0.454-0.205-0.824-0.372-1.116-0.505C301.445,125.894,301.308,125.841,301.302,125.852z"/>
												</g>
											</g>
										</g>
									</g>
								</g>
								<g>
									<g>
										<g>
											<g>
												<g>
													<path style="fill:#263238;" d="M351.407,134.595c-0.054,0.033,0.367,0.745,0.908,1.958
														c0.543,1.21,1.165,2.943,1.534,4.931c0.363,1.99,0.398,3.831,0.321,5.155c-0.075,1.326-0.214,2.141-0.153,2.153
														c0.025,0.005,0.083-0.194,0.167-0.561c0.089-0.365,0.176-0.903,0.247-1.571c0.146-1.336,0.153-3.215-0.217-5.243
														c-0.376-2.026-1.051-3.78-1.662-4.977c-0.305-0.6-0.578-1.071-0.79-1.381
														C351.555,134.747,351.429,134.582,351.407,134.595z"/>
												</g>
											</g>
										</g>
									</g>
								</g>
								<g>
									<g>
										<g>
											<g>
												<g>
													<path style="fill:#263238;" d="M331.216,144.151c0.055,0.087,0.663-0.198,1.357-0.637
														c0.695-0.439,1.214-0.865,1.159-0.952c-0.055-0.087-0.663,0.198-1.358,0.637
														C331.68,143.638,331.161,144.064,331.216,144.151z"/>
												</g>
											</g>
										</g>
									</g>
								</g>
								<g>
									<g>
										<g>
											<g>
												<g>
													<path style="fill:#263238;" d="M330.066,142.59c0.094,0.041,0.822-1.408,1.625-3.236
														c0.803-1.829,1.378-3.345,1.284-3.386c-0.094-0.041-0.821,1.407-1.625,3.236
														C330.547,141.032,329.973,142.548,330.066,142.59z"/>
												</g>
											</g>
										</g>
									</g>
								</g>
							</g>
						</g>
					</g>
				</g>
			</g>
			<g>
				<path style="fill:#E0E0E0;" d="M275.369,137.72c0,0-8.293,5.969-9.33,9.267c-1.037,3.298-5.443,56.892-6.22,63.268
					c-0.777,6.377-1.555,18.299,3.369,22.186c4.924,3.888,15.55,6.803,15.55,6.803l9.816-20.28l-5.2-10.885l5.2-40.704
					L275.369,137.72z"/>
			</g>
			<g>
				<g>
					<path style="fill:#263238;" d="M276.372,238.53c0.001-0.014,0.182-0.027,0.531-0.039c0.348-0.012,0.863-0.006,1.526-0.097
						c1.3-0.165,3.3-0.506,5.306-1.919c2.02-1.364,3.876-3.797,5.061-6.927c1.191-3.121,1.884-6.884,1.92-10.909l0.046,0.139
						c-2.359-3.266-4.935-6.831-7.617-10.544l-0.06-0.083l0.013-0.102c0.035-0.27,0.072-0.563,0.109-0.857
						c1.466-11.415,2.792-21.746,3.759-29.284c0.481-3.708,0.873-6.727,1.151-8.872c0.132-1.01,0.238-1.814,0.316-2.411
						c0.066-0.549,0.103-0.84,0.122-0.84c0.009,0,0.012,0.073,0.01,0.216c-0.004,0.142-0.008,0.357-0.027,0.635
						c-0.054,0.601-0.127,1.408-0.219,2.424c-0.21,2.103-0.549,5.141-0.987,8.894c-0.876,7.505-2.151,17.865-3.608,29.304
						c-0.037,0.293-0.075,0.586-0.109,0.857l-0.047-0.185c2.674,3.719,5.241,7.29,7.593,10.562l0.047,0.066l-0.001,0.073
						c-0.055,4.111-0.78,7.893-2.023,11.069c-1.234,3.176-3.174,5.66-5.277,7.027c-1.036,0.703-2.085,1.14-3.023,1.399
						c-0.234,0.065-0.461,0.127-0.679,0.187c-0.221,0.038-0.435,0.075-0.64,0.11c-0.407,0.083-0.781,0.118-1.119,0.133
						c-0.673,0.067-1.192,0.034-1.542,0.019C276.552,238.559,276.371,238.544,276.372,238.53z"/>
				</g>
			</g>
			<g>
				<g>
					<path style="fill:#263238;" d="M266.351,211.838c-0.034-0.044,0.739-0.724,2.177-1.548c1.433-0.826,3.568-1.734,6.059-2.222
						c2.494-0.48,4.814-0.438,6.451-0.209c1.642,0.226,2.613,0.566,2.598,0.62c-0.013,0.181-4.046-0.887-8.951,0.1
						C269.771,209.5,266.43,212.001,266.351,211.838z"/>
				</g>
			</g>
		</g>
		<g>
			<g>
				<path style="fill:#FF725E;" d="M331.424,158.48L331.424,158.48L331.424,158.48L331.424,158.48L331.424,158.48
					c0.029-0.004,0.473,1.779,1.23,4.92c1.691-2.443,3.867-4.521,6.393-6.116l-0.032,0.006c0,0,12.804-12.719,16.894-26.094
					c2.969-9.71,2.23-20.463,2.23-20.463c-0.12-0.513-1.118-5.073-1.934-8.805c-0.669-3.058,1.2-6.069,4.223-6.883
					c6.357-1.713,23.569-5.063,27.517,6.497c5.891,17.249-3.631,35.88-3.529,41.211c0.019,1.007,0.035,1.823,0.048,2.486
					c5.046-1.167,8.96-2.008,8.979-1.924c0,0.001-0.006,0.003-0.006,0.004l33.143-7.733c0,0,10.95-3.314,14.707,7.911
					c3.756,11.225-8.988,14.958-8.988,14.958s5.99-0.264,7.617,9.945s-9.322,13.523-9.322,13.523s6.707-0.432,8.442,8.618
					c1.689,8.809-9.259,14.118-9.844,14.395c1.622-0.347,2.63-0.54,2.641-0.496c0.009,0.039-0.746,0.253-2.009,0.578
					c5.105,0.653,5.845,6.732,5.845,6.732c3.29,12.469-6.309,15.089-6.309,15.089l-60.51,14.131
					c-6.089,1.422-12.382,1.156-18.242-0.662c0.58,2.578,0.894,4.03,0.869,4.038v0l0,0l0,0l0,0l-42.264,9.87
					c-0.091,0.021-4.655-19.185-10.192-42.893c-5.539-23.717-9.953-42.954-9.862-42.975L331.424,158.48z"/>
			</g>
			<g style="opacity:0.3;">
				<path d="M331.424,158.48L331.424,158.48L331.424,158.48L331.424,158.48L331.424,158.48c0.029-0.004,0.473,1.779,1.23,4.92
					c1.691-2.443,3.867-4.521,6.393-6.116l-0.032,0.006c0,0,12.804-12.719,16.894-26.094c2.969-9.71,2.23-20.463,2.23-20.463
					c-0.12-0.513-1.118-5.073-1.934-8.805c-0.669-3.058,1.2-6.069,4.223-6.883c6.357-1.713,23.569-5.063,27.517,6.497
					c5.891,17.249-3.631,35.88-3.529,41.211c0.019,1.007,0.035,1.823,0.048,2.486c5.046-1.167,8.96-2.008,8.979-1.924
					c0,0.001-0.006,0.003-0.006,0.004l33.143-7.733c0,0,10.95-3.314,14.707,7.911c3.756,11.225-8.988,14.958-8.988,14.958
					s5.99-0.264,7.617,9.945s-9.322,13.523-9.322,13.523s6.707-0.432,8.442,8.618c1.689,8.809-9.259,14.118-9.844,14.395
					c1.622-0.347,2.63-0.54,2.641-0.496c0.009,0.039-0.746,0.253-2.009,0.578c5.105,0.653,5.845,6.732,5.845,6.732
					c3.29,12.469-6.309,15.089-6.309,15.089l-60.51,14.131c-6.089,1.422-12.382,1.156-18.242-0.662
					c0.58,2.578,0.894,4.03,0.869,4.038v0l0,0l0,0l0,0l-42.264,9.87c-0.091,0.021-4.655-19.185-10.192-42.893
					c-5.539-23.717-9.953-42.954-9.862-42.975L331.424,158.48z"/>
			</g>
			<g>
				<g>
					<g>
						<path style="fill:#FF725E;" d="M339.594,170.522l-0.82,5.494l13.511,57.853l0,0c8.002,5.314,17.843,7.089,27.197,4.904
							l60.51-14.132c0,0,9.599-2.62,6.309-15.089c0,0-0.79-6.623-6.505-6.801c0,0,11.608-5.358,9.872-14.408
							c-1.735-9.05-8.442-8.618-8.442-8.618s10.95-3.314,9.322-13.523c-1.628-10.21-7.617-9.945-7.617-9.945
							s12.744-3.732,8.988-14.958c-3.756-11.225-14.707-7.911-14.707-7.911l-43.039,10.042l-37.727,8.811
							C347.612,154.304,340.933,161.55,339.594,170.522z"/>
					</g>
					<g>
						<path style="fill:#FF725E;" d="M349.647,155.093c0,0,12.804-12.719,16.894-26.094c2.969-9.709,2.23-20.462,2.23-20.462
							c-0.12-0.513-1.118-5.073-1.934-8.805c-0.669-3.058,1.2-6.069,4.223-6.883c6.357-1.713,17.829,1.446,21.777,13.007
							c5.891,17.249,2.109,29.37,2.212,34.701c0.103,5.331,0.103,5.331,0.103,5.331L349.647,155.093z"/>
					</g>
					<g>
						
							<rect x="309.25" y="160.062" transform="matrix(0.9738 -0.2274 0.2274 0.9738 -37.7562 80.6143)" style="fill:#FF725E;" width="43.401" height="88.179"/>
					</g>
					<g>
						<g>
							<path style="fill:#263238;" d="M362.109,242.151c0.091-0.021-4.324-19.262-9.861-42.971
								c-5.539-23.717-10.101-42.919-10.193-42.898c-0.091,0.021,4.323,19.258,9.862,42.975
								C357.454,222.965,362.018,242.172,362.109,242.151z"/>
						</g>
					</g>
					<g>
						<g>
							<path style="fill:#263238;" d="M319.845,252.021c0.091-0.021-4.324-19.263-9.861-42.971
								c-5.539-23.717-10.102-42.919-10.193-42.898c-0.091,0.021,4.323,19.258,9.862,42.975
								C315.19,232.836,319.754,252.042,319.845,252.021z"/>
						</g>
					</g>
					<g>
						<path style="fill:#FFFFFF;" d="M331.726,179.422c1.02,4.368-1.694,8.735-6.061,9.755c-4.368,1.02-8.735-1.694-9.755-6.061
							c-1.02-4.368,1.694-8.735,6.062-9.755C326.338,172.341,330.706,175.055,331.726,179.422z"/>
					</g>
					<g>
						<g>
							<path style="fill:#263238;" d="M404.076,141.118c-0.021-0.092-4.647,0.91-10.33,2.238
								c-5.685,1.328-10.275,2.478-10.253,2.569c0.021,0.091,4.646-0.91,10.331-2.238
								C399.506,142.359,404.097,141.209,404.076,141.118z"/>
						</g>
					</g>
					<g>
						<g>
							<path style="fill:#263238;" d="M442.178,179.933c-0.021-0.091-2.984,0.522-6.616,1.371c-3.634,0.849-6.561,1.61-6.54,1.702
								c0.021,0.091,2.983-0.522,6.617-1.371C439.272,180.787,442.2,180.025,442.178,179.933z"/>
						</g>
					</g>
					<g>
						<g>
							<path style="fill:#263238;" d="M443.716,155.855c-0.021-0.092-4.219,0.811-9.375,2.015c-5.158,1.204-9.32,2.255-9.298,2.346
								c0.021,0.091,4.218-0.811,9.376-2.015C439.574,156.996,443.737,155.946,443.716,155.855z"/>
						</g>
					</g>
					<g>
						<g>
							<path style="fill:#263238;" d="M442.466,202.243c-0.021-0.091-4.219,0.811-9.375,2.015c-5.158,1.204-9.32,2.255-9.298,2.346
								c0.021,0.091,4.218-0.811,9.376-2.015C438.324,203.385,442.487,202.335,442.466,202.243z"/>
						</g>
					</g>
					<g style="opacity:0.3;">
						<g>
							<path style="fill:#FFFFFF;" d="M371.42,97.101c-1.315,1.228-1.467,3.304-0.968,5.032c0.499,1.728,1.528,3.246,2.309,4.866
								c1.729,3.581,2.234,7.74,1.414,11.631c-0.251,1.188-0.581,2.564,0.181,3.51c1.079,1.341,3.258,0.596,4.621-0.455
								c5.163-3.983,7.645-11.141,6.055-17.465c-0.67-2.666-2.06-5.227-4.266-6.867C378.561,95.714,375.168,94.227,371.42,97.101"/>
						</g>
					</g>
					<g style="opacity:0.3;">
						<g>
							<path style="fill:#FFFFFF;" d="M441.171,134.884c-1.483-0.285-3.005,0.09-4.469,0.461c-8.513,2.162-17.027,4.324-25.54,6.487
								c-2.785,0.707-8.01,1.337-8.063,4.179l0,0c-0.563,1.553,0.619,3.305,2.142,3.941c1.524,0.636,3.253,0.443,4.884,0.182
								c3.416-0.547,6.787-1.341,10.151-2.145c6.761-1.615,13.543-3.281,19.962-5.949c0.953-0.396,1.914-0.825,2.685-1.511
								c0.771-0.686,1.334-1.679,1.265-2.708C444.089,136.313,442.655,135.169,441.171,134.884z"/>
						</g>
					</g>
					<g>
						<g>
							<path style="fill:#FFFFFF;" d="M332.657,161.044c-0.021-0.091-5.945,1.214-13.228,2.915
								c-7.286,1.702-13.173,3.155-13.152,3.246c0.021,0.091,5.943-1.213,13.229-2.915
								C326.79,162.589,332.678,161.135,332.657,161.044z"/>
						</g>
					</g>
					<g>
						<g>
							<path style="fill:#FFFFFF;" d="M446.676,170.768c0.023,0.006,0.081-0.172,0.167-0.5c0.094-0.326,0.173-0.813,0.219-1.419
								c0.052-0.606,0.028-1.335-0.077-2.134c-0.122-0.796-0.335-1.661-0.676-2.529c-0.353-0.863-0.796-1.636-1.258-2.296
								c-0.477-0.65-0.962-1.193-1.419-1.596c-0.452-0.406-0.845-0.704-1.138-0.875c-0.289-0.178-0.453-0.266-0.466-0.246
								c-0.036,0.053,0.596,0.455,1.438,1.295c0.425,0.415,0.879,0.96,1.328,1.602c0.435,0.652,0.857,1.406,1.199,2.243
								c0.331,0.842,0.546,1.678,0.682,2.45c0.118,0.774,0.166,1.482,0.146,2.076C446.793,170.027,446.613,170.754,446.676,170.768z
								"/>
						</g>
					</g>
					<g>
						<g>
							<path style="fill:#FFFFFF;" d="M447.853,147.556c0.024,0.022,0.411-0.359,0.796-1.136c0.388-0.771,0.707-1.964,0.623-3.293
								c-0.09-1.328-0.561-2.471-1.046-3.184c-0.483-0.721-0.917-1.048-0.937-1.023c-0.045,0.042,0.32,0.424,0.732,1.148
								c0.415,0.719,0.826,1.815,0.912,3.081c0.079,1.267-0.185,2.406-0.503,3.173C448.115,147.093,447.803,147.52,447.853,147.556z
								"/>
						</g>
					</g>
					<g>
						<g>
							<path style="fill:#FFFFFF;" d="M444.656,195.77c0.017,0.028,0.555-0.305,1.137-1.122c0.579-0.799,1.149-2.148,1.057-3.697
								c-0.097-1.549-0.827-2.819-1.499-3.542c-0.677-0.74-1.251-1.005-1.265-0.975c-0.036,0.049,0.479,0.382,1.082,1.131
								c0.601,0.735,1.252,1.952,1.343,3.407c0.086,1.455-0.412,2.742-0.919,3.544C445.086,195.332,444.614,195.725,444.656,195.77z
								"/>
						</g>
					</g>
					<g>
						<g>
							<path style="fill:#FFFFFF;" d="M440.818,218.168c0.027,0.021,0.395-0.394,0.766-1.203c0.373-0.803,0.689-2.023,0.633-3.387
								c-0.062-1.364-0.483-2.552-0.924-3.32c-0.44-0.773-0.843-1.155-0.868-1.132c-0.047,0.037,0.283,0.467,0.654,1.242
								c0.373,0.772,0.738,1.917,0.798,3.224c0.053,1.307-0.211,2.48-0.516,3.281C441.06,217.679,440.768,218.136,440.818,218.168z"
								/>
						</g>
					</g>
					<g>
						<g>
							<path style="fill:#FFFFFF;" d="M393.305,126.132c0.023,0.005,0.112-0.343,0.253-0.978c0.074-0.317,0.155-0.707,0.219-1.165
								c0.067-0.457,0.164-0.976,0.208-1.557c0.132-1.157,0.188-2.546,0.15-4.086c-0.059-1.539-0.224-3.23-0.555-4.978
								c-0.346-1.746-0.824-3.376-1.344-4.827c-0.54-1.443-1.11-2.711-1.665-3.735c-0.257-0.522-0.541-0.967-0.774-1.367
								c-0.23-0.401-0.45-0.733-0.637-0.999c-0.368-0.537-0.58-0.826-0.599-0.813s0.155,0.328,0.487,0.883
								c0.169,0.276,0.372,0.616,0.585,1.023c0.216,0.406,0.483,0.855,0.724,1.381c0.523,1.03,1.065,2.297,1.584,3.731
								c0.498,1.442,0.962,3.057,1.305,4.785c0.327,1.73,0.5,3.402,0.576,4.925c0.054,1.525,0.024,2.902-0.077,4.053
								c-0.028,0.578-0.108,1.095-0.156,1.552c-0.045,0.458-0.106,0.848-0.161,1.168
								C393.327,125.77,393.282,126.127,393.305,126.132z"/>
						</g>
					</g>
				</g>
			</g>
		</g>
		<g>
			<g>
				<path style="fill:#AE7461;" d="M296.81,227.446c0,0,3.323-2.573,5.789-2.68c2.466-0.107,5.682,0.858,6.325,0.536
					c0.643-0.322,2.144-1.732,3.109-0.544c0.965,1.188,2.144,5.476-3.002,6.655h-3.538c0,0,0.429,3.538,1.287,4.932
					c0.858,1.394,12.865,16.51,12.865,16.51s1.501,1.501,0.75,3.002c-0.75,1.501-3.967,0.643-3.967,0.643s-2.251,2.037-4.824,1.072
					s-3.645-1.715-3.645-1.715s-2.788,2.251-5.789,0c-3.002-2.251-13.012-14.796-13.012-14.796l3.577-14.043L296.81,227.446z"/>
			</g>
			<g>
				<path style="fill:#AE7461;" d="M286.39,219.149l10.42,8.297l-7.651,13.615l-15.259-5.54
					C273.9,235.521,274.338,219.44,286.39,219.149z"/>
			</g>
		</g>
		<g>
			<g>
				<g>
					<path style="fill:#AE7461;" d="M448.917,200.612c0,0-0.329-3.731-2.414-2.963c-2.085,0.768-2.963,5.158-2.963,5.158
						L448.917,200.612z"/>
				</g>
			</g>
			<g>
				<g>
					<path style="fill:#AE7461;" d="M441.454,204.292c0,0,3.622-4.061,8.67-3.731c5.048,0.329,1.866,4.61,1.866,4.61
						s3.736,2.305,0.99,5.597l-0.441,0.878c0,0,3.183,1.207-0.11,4.609c0,0,1.207,2.195-0.439,3.841
						c-1.646,1.646-5.762-0.549-5.762-0.549s-3.786,0.878-4.116-0.659c-0.329-1.536,0.549-2.634,0.878-2.853
						c0.329-0.219,2.305-0.988,2.305-0.988s-4.39,0.549-4.5-0.549c-0.11-1.098-0.549-2.305,2.744-3.402l1.756-0.47
						c0,0-4.552,0.141-4.581-0.957c-0.029-1.097-0.248-1.536,1.398-2.305c1.646-0.768,2.963-1.646,2.963-1.646
						S440.796,206.597,441.454,204.292z"/>
				</g>
			</g>
			<g>
				<g>
					<g>
						<path style="fill:#6F4439;" d="M440.647,208.577c0.085,0.125,2.138-1.876,5.43-2.78c3.279-0.954,6.075-0.324,6.082-0.475
							c0.012-0.048-0.659-0.276-1.793-0.385c-1.13-0.112-2.73-0.048-4.412,0.425c-1.68,0.478-3.076,1.261-3.981,1.948
							C441.064,207.997,440.612,208.542,440.647,208.577z"/>
					</g>
				</g>
			</g>
			<g>
				<g>
					<g>
						<path style="fill:#6F4439;" d="M441.154,214.854c0.026-0.031-0.107-0.139-0.211-0.392c-0.106-0.249-0.143-0.664,0.01-1.141
							c0.152-0.471,0.447-1.016,0.993-1.377c0.538-0.388,1.24-0.654,2.007-0.837c3.115-0.719,5.753-0.551,5.753-0.692
							c0.004-0.057-0.647-0.172-1.715-0.19c-1.066-0.018-2.545,0.075-4.145,0.443c-0.799,0.191-1.561,0.489-2.147,0.941
							c-0.618,0.442-0.932,1.096-1.055,1.631c-0.131,0.546-0.036,1.036,0.143,1.303
							C440.965,214.814,441.145,214.872,441.154,214.854z"/>
					</g>
				</g>
			</g>
			<g>
				<g>
					<g>
						<path style="fill:#6F4439;" d="M443.001,219.678c0.012-0.035-0.158-0.098-0.382-0.308c-0.218-0.206-0.492-0.582-0.545-1.116
							c-0.055-0.528,0.082-1.204,0.643-1.631c0.539-0.431,1.362-0.728,2.154-0.998c1.641-0.457,3.252-0.249,4.397-0.231
							c1.156,0.047,1.877-0.038,1.873-0.1c-0.004-0.063-0.71-0.091-1.851-0.219c-1.131-0.094-2.767-0.373-4.545,0.116
							c-0.859,0.298-1.647,0.58-2.296,1.114c-0.316,0.265-0.544,0.625-0.644,0.985c-0.094,0.362-0.098,0.701-0.046,1.01
							c0.107,0.622,0.474,1.024,0.752,1.208C442.798,219.697,442.997,219.702,443.001,219.678z"/>
					</g>
				</g>
			</g>
			<g>
				<g>
					<g>
						<path style="fill:#6F4439;" d="M441.388,204.468c0.034,0.003,0.096-0.138,0.322-0.344c0.217-0.208,0.557-0.49,0.998-0.811
							c0.885-0.623,2.167-1.489,3.72-2c1.596-0.506,3.083-0.789,4.146-0.602c1.062,0.163,1.649,0.558,1.688,0.482
							c0.028-0.027-0.506-0.534-1.63-0.796c-1.127-0.286-2.729-0.028-4.335,0.484C443.016,202.058,441.115,204.32,441.388,204.468z"
							/>
					</g>
				</g>
			</g>
		</g>
	</g>
</g>
</svg>
